<svg width="94px" height="30px" viewBox="0 0 94 30" version="1.1" xmlns="http://www.w3.org/2000/svg" xmlns:xlink="http://www.w3.org/1999/xlink">
    <g id="Web" stroke="none" stroke-width="1" fill="none" fillRule="evenodd">
        <g id="Home" transform="translate(-375.000000, -15.000000)">
            <g id="Header">
                <g id="logo" transform="translate(375.000000, 15.000000)">
                    <g id="text" transform="translate(35.375000, 6.093750)" fill="#FFFFFF">
                        <path d="M17.667833,7.29111896 C19.0806395,5.46015109 21.292198,4.26900938 23.8268531,4.26900938 C25.5962906,4.26900938 27.0542906,4.99191562 28.0137281,6.17766563 L28.7527594,4.62197813 L31.3176656,4.62197813 L28.7502281,17.4594469 L26.3001656,17.4594469 L26.2186031,16.2671344 C24.9843844,17.2319156 23.4496969,17.8125094 21.7579781,17.8125094 C18.3552281,17.8125094 16.0357594,15.3644156 16.0357594,12.0871969 C16.0357594,10.4574424 16.5340995,8.93175463 17.394125,7.668525 L16.1075531,7.668525 C14.1869906,7.668525 13.1698031,8.5364625 12.7096781,10.47165 L11.3098031,17.4594937 L8.00502188,17.4594937 L10.5726469,4.622025 L12.7103344,4.622025 L12.9559594,6.1150875 C14.1109594,5.042775 15.4686469,4.5505875 17.0816156,4.5505875 L18.2226469,4.5505875 L17.667833,7.29111896 Z M5.67685312,7.59402187 C4.75144687,12.1924594 4.68310312,12.5047406 4.68310312,12.8259281 C4.68310312,13.8521156 5.33213437,14.4059906 6.52472812,14.4059906 L8.00204062,14.4059906 L7.39500937,17.4662719 L5.52075937,17.4662719 C2.86566562,17.4662719 1.29010312,16.0063031 1.29010312,13.6298344 C1.29010312,12.9066469 1.41582187,12.3958031 2.37432187,7.59402187 L0.004228125,7.59402187 L0.150290625,6.89211562 L6.31744687,1.27499062 L6.95485312,1.27499062 L6.28463437,4.62195937 L9.91472812,4.62195937 L9.32400937,7.59402187 L5.67685312,7.59402187 Z M26.7260719,10.2181969 C26.7260719,8.50875937 25.5231656,7.37682187 23.7150094,7.37682187 C21.4104469,7.37682187 19.4046656,9.47747812 19.4046656,11.8567594 C19.4046656,13.5661031 20.5808531,14.6878219 22.3821656,14.6878219 C24.7038844,14.6878219 26.7260719,12.5871656 26.7260719,10.2181969 Z M41.3757,10.3197281 C41.3757,8.56604062 40.1727937,7.39060312 38.3137312,7.39060312 C36.0294187,7.39060312 34.0812937,9.44400937 34.0812937,11.7551344 C34.0812937,13.5086344 35.2910437,14.6742281 37.1501062,14.6742281 C39.420825,14.6742281 41.3757,12.6648844 41.3757,10.3197281 Z M46.6362,9.37499999e-06 L43.141575,17.4594469 L40.7766375,17.4594469 L40.559325,16.2587906 C39.2938875,17.2162594 37.7746687,17.7957281 36.2041687,17.7957281 C33.0044812,17.7957281 30.702075,15.4150406 30.702075,12.1209469 C30.702075,7.82166562 34.1667,4.26891562 38.5610437,4.26891562 C40.0408875,4.26891562 41.2843875,4.79269687 42.1940437,5.66485312 L43.3317937,9.37499999e-06 L46.6362,9.37499999e-06 Z M52.55895,7.10911875 C50.8182938,7.10911875 49.4902313,8.197275 48.7886063,9.67280625 L55.3813875,9.67280625 C55.221825,8.01511875 54.2132625,7.1094 52.5586688,7.1094 L52.55895,7.10911875 Z M48.234075,11.9983687 C48.2324813,12.0540562 48.231825,12.1095562 48.231825,12.1652437 C48.231825,13.91865 49.2513563,14.8570875 51.0462,14.8570875 C52.3512938,14.8570875 53.5179188,14.2521187 54.2384813,13.2761812 L57.787575,13.2761812 C56.3031375,16.142025 53.7461063,17.8124625 50.6532,17.8124625 C47.3487938,17.8124625 45.0902625,15.3304312 45.0902625,12.1209 C45.0902625,7.8354 48.3140438,4.2689625 52.8066375,4.2689625 C56.1890438,4.2689625 58.4943563,6.79861875 58.4943563,9.940275 C58.5114188,10.7004937 58.3756688,11.3459625 58.1922,11.9980875 L48.234075,11.9983687 Z"></path>
                    </g>
                    <g id="shape" fill="#25D56F">
                        <path d="M15.0965625,7.5 C10.940625,7.5 7.47,10.9003125 7.5,15.0553125 C7.5103125,16.400625 7.8740625,17.6615625 8.5040625,18.75 L4.3903125,18.75 C3.9759375,17.5771875 3.75,16.3153125 3.75,15 C3.75,8.7871875 8.7871875,3.75 15,3.75 C18.331875,3.75 21.3253125,5.1984375 23.3840625,7.5 L15.0965625,7.5 Z M29.52,11.221875 C29.1778125,9.901875 28.659375,8.6521875 27.9928125,7.5 C25.3996875,3.0159375 20.551875,0 15,0 C6.7153125,0 0,6.7153125 0,15 C0,16.305 0.166875,17.5715625 0.48,18.778125 C0.8221875,20.098125 1.340625,21.3478125 2.0071875,22.5 L14.9034375,22.5 C19.059375,22.5 22.53,19.0996875 22.5,14.9446875 C22.4925,13.970625 22.299375,13.0396875 21.9534375,12.1875 L17.4796875,12.1875 C18.241875,12.85875 18.7284375,13.835625 18.7490625,14.926875 C18.789375,17.0175 17.049375,18.729375 14.9634375,18.75 C12.93375,18.7303125 11.289375,17.098125 11.2509375,15.073125 C11.210625,12.97875 12.9571875,11.2640625 15.04875,11.25 L25.6096875,11.25 C26.0240625,12.4228125 26.25,13.6846875 26.25,15 C26.25,21.2128125 21.2128125,26.25 15,26.25 C12.1471875,26.25 9.5428125,25.18875 7.5609375,23.4375 L2.596875,23.4375 C5.2959375,27.399375 9.8446875,30 15,30 C23.2846875,30 30,23.2846875 30,15 C30,13.695 29.833125,12.4284375 29.52,11.221875 L29.52,11.221875 Z"></path>
                    </g>
                </g>
            </g>
        </g>
    </g>
</svg>