<svg width="106" height="32" viewBox="0 0 106 32" fill="none" xmlns="http://www.w3.org/2000/svg">
<path fillRule="evenodd" clipRule="evenodd" d="M16.268 8C11.835 8 8.13304 11.627 8.16504 16.059C8.17604 17.494 8.56404 18.839 9.23604 20H4.84804C4.40604 18.749 4.16504 17.403 4.16504 16C4.16504 9.373 9.53804 4 16.165 4C19.719 4 22.912 5.545 25.108 8H16.268ZM31.653 11.97C31.288 10.562 30.735 9.229 30.024 8C27.258 3.217 22.087 0 16.165 0C7.32804 0 0.165039 7.163 0.165039 16C0.165039 17.392 0.343039 18.743 0.677039 20.03C1.04204 21.438 1.59504 22.771 2.30604 24H16.062C20.495 24 24.197 20.373 24.165 15.941C24.157 14.902 23.951 13.909 23.582 13H18.81C19.623 13.716 20.142 14.758 20.164 15.922C20.207 18.152 18.351 19.978 16.126 20C13.961 19.979 12.207 18.238 12.166 16.078C12.123 13.844 13.986 12.015 16.217 12H27.482C27.924 13.251 28.165 14.597 28.165 16C28.165 22.627 22.792 28 16.165 28C13.122 28 10.344 26.868 8.23004 25H2.93504C5.81404 29.226 10.666 32 16.165 32C25.002 32 32.165 24.837 32.165 16C32.165 14.608 31.987 13.257 31.653 11.97Z" fill="#25D56F"/>
<path fillRule="evenodd" clipRule="evenodd" d="M59.9964 14.1865C61.5826 12.1307 64.0656 10.7933 66.9113 10.7933C68.8979 10.7933 70.5348 11.6049 71.612 12.9363L72.4418 11.1896H75.3214L72.4389 25.6036H69.6882L69.5966 24.2648C68.2109 25.3481 66.4879 26 64.5885 26C60.7682 26 58.1641 23.2513 58.1641 19.5716C58.1641 17.7417 58.7236 16.0286 59.6891 14.6103H58.2447C56.0884 14.6103 54.9464 15.5848 54.4298 17.7576L52.8581 25.6036H49.1477L52.0305 11.1896H54.4305L54.7063 12.8661C56.003 11.6621 57.5273 11.1094 59.3383 11.1094H60.6193L59.9964 14.1865ZM46.5338 14.5266C45.4949 19.6898 45.4181 20.0404 45.4181 20.401C45.4181 21.5532 46.1468 22.1751 47.4858 22.1751H49.1444L48.4629 25.6112H46.3586C43.3776 25.6112 41.6087 23.972 41.6087 21.3037C41.6087 20.4917 41.7499 19.9181 42.826 14.5266H40.165L40.329 13.7385L47.2531 7.43156H47.9687L47.2162 11.1896H51.2918L50.6286 14.5266H46.5338ZM70.1663 17.4731C70.1663 15.5537 68.8158 14.2827 66.7857 14.2827C64.1984 14.2827 61.9464 16.6414 61.9464 19.3128C61.9464 21.2321 63.2669 22.4916 65.2893 22.4916C67.896 22.4916 70.1663 20.1329 70.1663 17.4731ZM86.6139 17.5871C86.6139 15.618 85.2633 14.2982 83.1761 14.2982C80.6115 14.2982 78.4242 16.6038 78.4242 19.1987C78.4242 21.1676 79.7825 22.4763 81.8697 22.4763C84.4191 22.4763 86.6139 20.2202 86.6139 17.5871ZM92.52 6L88.5965 25.6036H85.9413L85.6973 24.2555C84.2766 25.3305 82.5709 25.9812 80.8076 25.9812C77.2153 25.9812 74.6303 23.3081 74.6303 19.6095C74.6303 14.7822 78.5201 10.7932 83.4538 10.7932C85.1152 10.7932 86.5113 11.3813 87.5326 12.3605L88.81 6H92.52ZM99.1696 13.9822C97.2153 13.9822 95.7242 15.2039 94.9365 16.8607H102.338C102.159 14.9994 101.027 13.9825 99.1693 13.9825L99.1696 13.9822ZM94.3139 19.4718C94.3121 19.5344 94.3114 19.5967 94.3114 19.6592C94.3114 21.6279 95.4561 22.6816 97.4712 22.6816C98.9364 22.6816 100.246 22.0024 101.055 20.9066H105.04C103.373 24.1244 100.502 25.9999 97.0299 25.9999C93.32 25.9999 90.7843 23.2131 90.7843 19.6094C90.7843 14.7976 94.4037 10.7932 99.4477 10.7932C103.245 10.7932 105.833 13.6335 105.833 17.161C105.853 18.0146 105.7 18.7393 105.494 19.4715L94.3139 19.4718Z" fill="#171825"/>
</svg>
