<svg width="36" height="36" viewBox="0 0 36 36" fill="none" xmlns="http://www.w3.org/2000/svg">
<circle cx="18" cy="18" r="18" fill="#FF0000"/>
<path fill-rule="evenodd" clip-rule="evenodd" d="M18.0017 7L9.22492 24.6334C7.82844 22.7893 7 20.4913 7 18C7 11.9251 11.9251 7 18 7H18.0017ZM13.4453 21.6953L18.6875 11.8984L21.0078 16.7109L13.4453 21.6953ZM25.5075 26.0395L22.125 18.9453L10.7065 26.2338C12.6478 27.955 15.2019 29 18 29C20.9021 29 23.5421 27.8759 25.5075 26.0395ZM22.5048 14.9698L18.684 7.02148C23.1081 7.29219 26.8249 10.1788 28.3082 14.1543L25.2187 14.3047L23.3281 15.3359L22.5048 14.9698ZM27.0003 24.3241C28.2601 22.5349 29 20.3538 29 18C29 16.7788 28.8007 15.604 28.4337 14.5066L24.0157 17.3984L23.9211 17.9175L27.0003 24.3241Z" fill="white"/>
</svg>
