<?xml version="1.0" encoding="utf-8"?>
<!-- Generator: Adobe Illustrator 26.5.0, SVG Export Plug-In . SVG Version: 6.00 Build 0)  -->
<svg version="1.1" id="Layer_1" xmlns="http://www.w3.org/2000/svg" xmlns:xlink="http://www.w3.org/1999/xlink" x="0px" y="0px"
	 width="36px" height="36px" viewBox="0 0 36 36" enable-background="new 0 0 36 36" xml:space="preserve">
<g>
	<path fill="#E6203A" d="M19.065,36c-0.709,0-1.417,0-2.126,0c-0.025-0.05-0.072-0.034-0.111-0.036
		c-1.478-0.099-2.924-0.369-4.335-0.823c-2.216-0.713-4.22-1.813-6.005-3.306c-2.511-2.098-4.324-4.688-5.437-7.766
		c-0.533-1.473-0.861-2.992-0.986-4.555c-0.012-0.15,0.01-0.309-0.063-0.452c0-0.709,0-1.417,0-2.126
		c0.055-0.031,0.033-0.085,0.037-0.129c0.039-0.394,0.063-0.79,0.116-1.182c0.253-1.885,0.784-3.688,1.607-5.403
		c2.878-5.997,8.871-9.954,15.43-10.193c0.208-0.009,0.415-0.021,0.623-0.026c0.345-0.007,0.69-0.001,1.035,0.026
		c0.614,0.002,1.222,0.075,1.827,0.166c1.416,0.213,2.792,0.579,4.115,1.131c4.098,1.708,7.179,4.533,9.233,8.467
		c1.168,2.237,1.796,4.628,1.951,7.145c0.033,0.72,0.031,1.44-0.002,2.16c-0.05,0.803-0.147,1.601-0.305,2.39
		c-0.506,2.532-1.498,4.858-3.005,6.957c-2.112,2.942-4.86,5.068-8.237,6.375c-1.581,0.612-3.219,0.981-4.909,1.118
		C19.366,35.949,19.208,35.926,19.065,36z M20.401,32.928c0.967,0.012,1.932-0.03,2.888-0.182c0.821-0.13,1.62-0.363,2.418-0.59
		c0.905-0.257,1.792-0.573,2.641-0.986c0.807-0.393,1.574-0.842,2.175-1.527c0.339-0.386,0.675-0.775,0.761-1.308
		c0.013-0.078,0.076-0.096,0.139-0.122c0.57-0.229,0.959-0.84,0.818-1.484c-0.069-0.315-0.197-0.599-0.346-0.875
		c-0.063-0.116-0.044-0.168,0.051-0.251c0.358-0.313,0.552-0.706,0.567-1.19c0.017-0.552-0.202-1.037-0.4-1.529
		c-0.238-0.59-0.431-1.19-0.469-1.831c-0.006-0.104,0.027-0.18,0.088-0.259c0.69-0.902,1.439-1.757,2.032-2.733
		c0.291-0.479,0.53-0.972,0.68-1.507c0.182-0.645,0.299-1.304,0.385-1.969c0.093-0.719,0.133-1.435-0.09-2.136
		c-0.211-0.665-0.579-1.226-1.173-1.614c-0.668-0.435-1.425-0.681-2.149-0.998c-0.278-0.122-0.589-0.187-0.829-0.37
		c-0.494-0.376-1.029-0.611-1.653-0.65c-0.883-0.055-1.664,0.188-2.327,0.779c-0.401,0.358-0.681,0.808-0.928,1.278
		c-0.055,0.105-0.091,0.092-0.17,0.049c-0.14-0.077-0.28-0.159-0.427-0.219c-0.898-0.366-1.799-0.726-2.699-1.088
		c-0.2-0.08-0.232-0.138-0.163-0.351c0.026-0.08,0.053-0.159,0.059-0.244c0.003-0.041,0.018-0.086-0.025-0.116
		c-0.235-0.159-0.443-0.37-0.729-0.435c-0.136-0.031-0.209-0.088-0.242-0.221c-0.144-0.571-0.692-0.779-1.25-0.599
		c-0.253,0.081-0.479,0.214-0.704,0.346c-0.085,0.05-0.144,0.058-0.224-0.006c-0.306-0.246-0.661-0.232-1.009-0.145
		c-0.46,0.115-0.887,0.34-1.376,0.372c-0.447,0.029-0.891,0.115-1.335,0.178c-0.433,0.061-0.865,0.127-1.298,0.187
		c-0.314,0.044-0.629,0.082-0.944,0.125c-0.061,0.008-0.086-0.012-0.097-0.072C13.028,8.542,13,8.45,12.981,8.356
		c-0.186-0.906-0.635-1.639-1.435-2.127c-0.631-0.385-1.307-0.565-2.055-0.446c-0.238,0.038-0.455,0.15-0.695,0.164
		c-0.647,0.038-1.294,0.07-1.941,0.111c-0.46,0.029-0.927,0.048-1.366,0.2c-0.827,0.286-1.414,0.856-1.81,1.628
		C3.425,8.38,3.289,8.913,3.186,9.452c-0.063,0.328-0.143,0.656-0.159,0.992c-0.031,0.674,0.022,1.342,0.134,2.007
		c0.105,0.625,0.195,1.253,0.295,1.88c0.111,0.694,0.379,1.341,0.614,1.997c0.046,0.129,0.039,0.219-0.032,0.331
		c-0.418,0.653-0.902,1.252-1.41,1.838c-0.575,0.664-0.844,1.402-0.337,2.242c0.046,0.076-0.001,0.119-0.05,0.167
		c-0.156,0.154-0.321,0.302-0.463,0.469c-0.528,0.621-0.489,1.381,0.098,1.937c0.073,0.069,0.081,0.136,0.075,0.223
		c-0.02,0.301-0.007,0.598,0.088,0.889c0.294,0.897,0.775,1.679,1.419,2.369c0.828,0.888,1.775,1.631,2.753,2.342
		c1.145,0.832,2.384,1.476,3.707,1.971c0.725,0.272,1.456,0.527,2.191,0.769c0.402,0.132,0.805,0.272,1.217,0.363
		c0.56,0.123,1.122,0.239,1.692,0.318c0.802,0.112,1.607,0.201,2.413,0.257C18.419,32.881,19.41,32.923,20.401,32.928z"/>
	<path fill="#241F20" d="M20.401,32.928c-0.991-0.005-1.981-0.047-2.969-0.116c-0.806-0.057-1.611-0.146-2.413-0.257
		c-0.57-0.079-1.132-0.195-1.692-0.318c-0.412-0.09-0.815-0.23-1.217-0.363c-0.735-0.242-1.466-0.497-2.191-0.769
		c-1.323-0.495-2.562-1.14-3.707-1.971c-0.979-0.711-1.925-1.455-2.753-2.342c-0.644-0.69-1.125-1.472-1.419-2.369
		c-0.095-0.29-0.108-0.588-0.088-0.889c0.006-0.087-0.003-0.155-0.075-0.223c-0.587-0.556-0.626-1.315-0.098-1.937
		c0.142-0.167,0.306-0.315,0.463-0.469c0.049-0.048,0.096-0.091,0.05-0.167c-0.507-0.84-0.238-1.578,0.337-2.242
		c0.507-0.586,0.992-1.185,1.41-1.838c0.071-0.112,0.078-0.202,0.032-0.331c-0.235-0.656-0.503-1.303-0.614-1.997
		c-0.1-0.626-0.19-1.254-0.295-1.88c-0.112-0.665-0.165-1.333-0.134-2.007c0.016-0.337,0.096-0.664,0.159-0.992
		c0.103-0.539,0.24-1.072,0.493-1.565c0.397-0.773,0.983-1.342,1.81-1.628c0.438-0.152,0.905-0.171,1.366-0.2
		c0.647-0.041,1.294-0.073,1.941-0.111c0.24-0.014,0.456-0.126,0.695-0.164c0.748-0.119,1.424,0.061,2.055,0.446
		c0.8,0.488,1.249,1.221,1.435,2.127C13,8.45,13.028,8.542,13.045,8.636c0.011,0.06,0.036,0.081,0.097,0.072
		c0.314-0.043,0.63-0.081,0.944-0.125c0.433-0.061,0.865-0.126,1.298-0.187c0.445-0.063,0.888-0.149,1.335-0.178
		c0.489-0.032,0.916-0.256,1.376-0.372c0.348-0.087,0.703-0.101,1.009,0.145c0.08,0.064,0.139,0.056,0.224,0.006
		c0.226-0.132,0.451-0.265,0.704-0.346c0.558-0.179,1.106,0.029,1.25,0.599c0.033,0.132,0.107,0.19,0.242,0.221
		c0.286,0.065,0.494,0.276,0.729,0.435c0.043,0.029,0.028,0.074,0.025,0.116c-0.006,0.085-0.033,0.163-0.059,0.244
		c-0.069,0.213-0.038,0.271,0.163,0.351c0.9,0.362,1.801,0.722,2.699,1.088c0.148,0.06,0.287,0.141,0.427,0.219
		c0.079,0.044,0.115,0.056,0.17-0.049c0.247-0.47,0.526-0.92,0.928-1.278c0.664-0.591,1.444-0.834,2.327-0.779
		c0.624,0.039,1.159,0.274,1.653,0.65c0.24,0.183,0.551,0.248,0.829,0.37c0.724,0.317,1.482,0.563,2.149,0.998
		c0.594,0.387,0.962,0.949,1.173,1.614c0.223,0.701,0.183,1.417,0.09,2.136c-0.086,0.665-0.203,1.324-0.385,1.969
		c-0.151,0.535-0.39,1.028-0.68,1.507c-0.593,0.976-1.343,1.832-2.032,2.733c-0.06,0.079-0.094,0.155-0.088,0.259
		c0.038,0.641,0.231,1.241,0.469,1.831c0.199,0.492,0.418,0.978,0.4,1.529c-0.015,0.484-0.209,0.877-0.567,1.19
		c-0.095,0.083-0.114,0.135-0.051,0.251c0.149,0.277,0.277,0.56,0.346,0.875c0.141,0.644-0.248,1.255-0.818,1.484
		c-0.063,0.025-0.126,0.044-0.139,0.122c-0.087,0.533-0.423,0.922-0.761,1.308c-0.601,0.686-1.368,1.135-2.175,1.527
		c-0.849,0.413-1.736,0.729-2.641,0.986c-0.798,0.227-1.597,0.459-2.418,0.59C22.332,32.898,21.368,32.94,20.401,32.928z
		 M30.66,24.934c0.043-0.037,0.091-0.01,0.138-0.011c0.409-0.001,0.854-0.23,0.717-0.825c-0.039-0.169-0.096-0.334-0.159-0.496
		c-0.183-0.469-0.389-0.93-0.502-1.423c-0.066-0.288-0.173-0.567-0.15-0.907c-0.322,0.221-0.621,0.332-0.971,0.258
		c-0.513-0.109-0.894-0.394-1.164-0.834c-0.336-0.548-0.494-1.153-0.568-1.785c-0.162-1.384-0.201-2.777-0.325-4.163
		c-0.046-0.52-0.09-1.04-0.218-1.548c-0.023-0.09-0.038-0.185-0.125-0.251c-0.217-0.165-0.266-0.364-0.164-0.615
		c0.059-0.145,0.156-0.244,0.317-0.257c0.159-0.013,0.257,0.083,0.327,0.211c0.127,0.234,0.213,0.483,0.263,0.743
		c0.193,1.005,0.209,2.028,0.324,3.041c0.103,0.907,0.093,1.822,0.214,2.727c0.068,0.507,0.169,1.006,0.425,1.459
		c0.165,0.291,0.39,0.512,0.716,0.623c0.188,0.065,0.35,0.039,0.509-0.071c0.2-0.138,0.376-0.302,0.524-0.491
		c0.76-0.966,1.573-1.892,2.21-2.952c0.225-0.375,0.397-0.765,0.516-1.182c0.099-0.346,0.177-0.697,0.236-1.053
		c0.105-0.633,0.231-1.266,0.161-1.913c-0.068-0.63-0.312-1.172-0.85-1.539c-0.287-0.196-0.608-0.336-0.935-0.459
		c-0.013-0.002-0.027-0.004-0.04-0.006c0.006,0.01,0.011,0.021,0.017,0.031c0.151,0.216,0.265,0.452,0.379,0.707
		c-0.612-0.051-1.167-0.167-1.566-0.673c-0.234-0.296-0.496-0.571-0.748-0.853c-0.352-0.394-0.799-0.585-1.323-0.592
		c-0.81-0.011-1.411,0.36-1.843,1.031c-0.278,0.431-0.489,0.894-0.656,1.378c-0.053,0.153-0.105,0.308-0.2,0.441
		c-0.115,0.163-0.291,0.207-0.439,0.116c-0.175-0.108-0.257-0.343-0.162-0.537c0.056-0.113,0.018-0.151-0.069-0.209
		c-0.403-0.266-0.836-0.468-1.286-0.64c-1.008-0.384-2.004-0.801-2.994-1.23c-0.126-0.054-0.181-0.157-0.16-0.291
		c0.017-0.106,0.05-0.21,0.076-0.314c0.017-0.069,0.015-0.129-0.08-0.103c-0.185,0.05-0.383,0.088-0.519,0.233
		c-0.31,0.334-0.714,0.256-1.141,0.301c0.322-0.395,0.473-0.837,0.763-1.198c-0.443,0.226-0.841,0.507-1.245,0.776
		c-0.233,0.155-0.483,0.183-0.769,0.171c0.036-0.088,0.065-0.16,0.093-0.231c0.073-0.184,0.146-0.368,0.218-0.552
		c0.041-0.106,0.007-0.134-0.097-0.095c-0.191,0.071-0.383,0.14-0.574,0.211c-0.107,0.04-0.215,0.073-0.329,0.088
		c-1.456,0.199-2.912,0.401-4.368,0.597c-0.151,0.02-0.218,0.049-0.178,0.227c0.047,0.209-0.07,0.372-0.251,0.415
		c-0.192,0.046-0.387-0.061-0.462-0.252c-0.048-0.123-0.032-0.249-0.024-0.374c0.036-0.602-0.059-1.184-0.268-1.746
		c-0.379-1.02-1.752-1.665-2.823-0.985c-0.293,0.186-0.607,0.34-0.912,0.507c-0.089,0.049-0.181,0.092-0.284,0.11
		C7.521,7.741,7.291,7.524,7.36,7.186c0.023-0.113-0.007-0.121-0.098-0.113C6.993,7.097,6.723,7.118,6.454,7.139
		C5.679,7.199,5.11,7.593,4.779,8.276c-0.433,0.893-0.623,1.855-0.58,2.846c0.04,0.924,0.237,1.832,0.373,2.745
		c0.127,0.853,0.442,1.654,0.782,2.443c0.069,0.16,0.161,0.308,0.268,0.447c0.113,0.148,0.253,0.225,0.444,0.229
		c0.261,0.005,0.499-0.054,0.718-0.195c0.22-0.141,0.4-0.326,0.556-0.533c0.383-0.508,0.638-1.084,0.878-1.667
		c0.506-1.232,1.008-2.465,1.589-3.664c0.21-0.434,0.46-0.843,0.787-1.2c0.114-0.125,0.239-0.24,0.397-0.305
		c0.131-0.054,0.264-0.05,0.359,0.074c0.093,0.121,0.071,0.249-0.014,0.366c-0.031,0.043-0.069,0.084-0.11,0.119
		c-0.246,0.21-0.422,0.473-0.581,0.75c-0.23,0.401-0.432,0.816-0.62,1.238c-0.453,1.013-0.827,2.059-1.261,3.08
		c-0.313,0.736-0.703,1.419-1.274,1.988c-0.22,0.219-0.473,0.387-0.766,0.493c-0.6,0.217-1.133,0.147-1.561-0.367
		c-0.015-0.017-0.035-0.03-0.062-0.052c-0.05,0.076-0.095,0.146-0.141,0.215c-0.355,0.528-0.704,1.06-1.149,1.521
		c-0.171,0.177-0.332,0.364-0.46,0.576c-0.249,0.414-0.137,0.785,0.299,0.996c0.037,0.018,0.074,0.036,0.112,0.054
		c-0.302,0.237-0.611,0.466-0.876,0.745c-0.228,0.24-0.445,0.489-0.552,0.811c-0.1,0.299-0.037,0.499,0.192,0.71
		c0.175,0.161,0.372,0.229,0.629,0.189c-0.027,0.044-0.036,0.064-0.05,0.081c-0.285,0.347-0.356,0.739-0.232,1.166
		c0.184,0.635,0.484,1.209,0.889,1.733c0.565,0.731,1.27,1.306,2.018,1.834c0.847,0.598,1.666,1.241,2.58,1.738
		c1.067,0.579,2.207,0.987,3.348,1.392c1.566,0.557,3.171,0.925,4.83,1.07c1.017,0.089,2.035,0.156,3.054,0.193
		c0.996,0.036,1.992,0.043,2.987-0.056c0.906-0.09,1.781-0.31,2.655-0.549c1.293-0.353,2.55-0.792,3.716-1.469
		c0.576-0.335,1.046-0.78,1.456-1.297c0.249-0.313,0.326-0.661,0.221-1.048c-0.015-0.057-0.041-0.112-0.024-0.177
		c0.114,0,0.227,0.005,0.34-0.001c0.431-0.023,0.605-0.207,0.601-0.635c-0.001-0.107-0.011-0.216-0.032-0.321
		C31.38,25.953,31.037,25.435,30.66,24.934z"/>
	<path fill="#CA945F" d="M3.76,20.473c-0.037-0.018-0.075-0.036-0.112-0.054c-0.436-0.211-0.547-0.582-0.299-0.996
		c0.127-0.212,0.289-0.4,0.46-0.576c0.446-0.46,0.794-0.993,1.149-1.521c0.046-0.069,0.091-0.139,0.141-0.215
		c0.027,0.022,0.048,0.035,0.062,0.052c0.428,0.515,0.961,0.584,1.561,0.367c0.293-0.106,0.546-0.274,0.766-0.493
		c0.571-0.569,0.961-1.252,1.274-1.988c0.434-1.021,0.809-2.067,1.261-3.08c0.188-0.422,0.391-0.837,0.62-1.238
		c0.159-0.278,0.335-0.54,0.581-0.75c0.041-0.035,0.078-0.075,0.11-0.119c0.085-0.118,0.106-0.245,0.014-0.366
		c-0.094-0.124-0.228-0.128-0.359-0.074c-0.158,0.065-0.282,0.18-0.397,0.305c-0.327,0.357-0.577,0.766-0.787,1.2
		c-0.581,1.199-1.083,2.432-1.589,3.664c-0.24,0.584-0.495,1.159-0.878,1.667c-0.156,0.207-0.336,0.392-0.556,0.533
		c-0.219,0.14-0.457,0.2-0.718,0.195c-0.192-0.004-0.332-0.082-0.444-0.229c-0.106-0.139-0.199-0.287-0.268-0.447
		c-0.34-0.789-0.655-1.591-0.782-2.443c-0.136-0.913-0.333-1.821-0.373-2.745c-0.043-0.991,0.147-1.953,0.58-2.846
		c0.331-0.683,0.9-1.077,1.676-1.137c0.269-0.021,0.538-0.042,0.807-0.066C7.353,7.065,7.383,7.072,7.36,7.186
		C7.291,7.524,7.521,7.741,7.864,7.682c0.103-0.018,0.194-0.06,0.284-0.11C8.452,7.405,8.766,7.252,9.06,7.065
		c1.07-0.68,2.444-0.035,2.823,0.985c0.209,0.563,0.304,1.145,0.268,1.746c-0.007,0.125-0.024,0.251,0.024,0.374
		c0.075,0.19,0.27,0.298,0.462,0.252c0.182-0.044,0.299-0.206,0.251-0.415c-0.04-0.178,0.026-0.207,0.178-0.227
		c1.457-0.195,2.912-0.398,4.368-0.597c0.114-0.016,0.222-0.049,0.329-0.088c0.191-0.071,0.383-0.139,0.574-0.211
		c0.104-0.039,0.138-0.011,0.097,0.095c-0.072,0.184-0.145,0.368-0.218,0.552c-0.028,0.072-0.057,0.143-0.093,0.231
		c0.286,0.012,0.535-0.015,0.769-0.171c0.404-0.269,0.801-0.55,1.245-0.776c-0.29,0.36-0.442,0.803-0.763,1.198
		c0.427-0.045,0.831,0.033,1.141-0.301c0.135-0.146,0.334-0.183,0.519-0.233c0.095-0.026,0.097,0.035,0.08,0.103
		c-0.026,0.105-0.059,0.208-0.076,0.314c-0.021,0.134,0.035,0.237,0.16,0.291c0.99,0.43,1.986,0.846,2.994,1.23
		c0.451,0.172,0.883,0.374,1.286,0.64c0.088,0.058,0.125,0.096,0.069,0.209c-0.095,0.194-0.013,0.429,0.162,0.537
		c0.148,0.091,0.324,0.047,0.439-0.116c0.094-0.134,0.147-0.288,0.2-0.441c0.167-0.484,0.378-0.946,0.656-1.378
		c0.432-0.671,1.032-1.042,1.843-1.031c0.524,0.007,0.971,0.198,1.323,0.592c0.252,0.282,0.514,0.556,0.748,0.853
		c0.399,0.505,0.954,0.622,1.566,0.673c-0.114-0.255-0.228-0.49-0.379-0.707c0.008-0.008,0.016-0.017,0.024-0.026
		c0.326,0.123,0.647,0.263,0.934,0.459c0.538,0.367,0.783,0.909,0.85,1.539c0.069,0.647-0.057,1.279-0.161,1.913
		c-0.059,0.355-0.137,0.706-0.236,1.053c-0.119,0.417-0.291,0.807-0.516,1.182c-0.637,1.06-1.45,1.985-2.21,2.952
		c-0.148,0.189-0.325,0.353-0.524,0.491c-0.159,0.11-0.321,0.135-0.509,0.071c-0.326-0.112-0.551-0.333-0.716-0.623
		c-0.257-0.452-0.358-0.951-0.425-1.459c-0.121-0.905-0.111-1.82-0.214-2.727c-0.114-1.013-0.131-2.036-0.324-3.041
		c-0.05-0.261-0.136-0.51-0.263-0.743c-0.07-0.129-0.168-0.224-0.327-0.211c-0.161,0.013-0.258,0.112-0.317,0.257
		c-0.102,0.251-0.054,0.45,0.164,0.615c0.086,0.066,0.102,0.161,0.125,0.251c0.129,0.508,0.172,1.029,0.218,1.548
		c0.124,1.386,0.163,2.78,0.325,4.163c0.074,0.632,0.232,1.238,0.568,1.785c0.27,0.44,0.652,0.725,1.164,0.834
		c0.35,0.074,0.649-0.037,0.971-0.258c-0.023,0.34,0.084,0.619,0.15,0.907c0.113,0.494,0.319,0.954,0.502,1.423
		c0.063,0.162,0.12,0.327,0.159,0.496c0.137,0.595-0.308,0.824-0.717,0.825c-0.046,0-0.094-0.027-0.138,0.011
		c-0.469-0.581-0.998-1.101-1.604-1.537c-0.583-0.419-1.199-0.781-1.914-0.922c-0.411-0.081-0.83-0.117-1.242-0.192
		c-0.726-0.132-1.453-0.249-2.195-0.221c-0.701,0.026-1.401,0.058-2.103,0.071c-0.239,0.004-0.464-0.02-0.672-0.142
		c0.054-0.049,0.04-0.105,0.024-0.166c-0.033-0.121-0.062-0.244-0.09-0.367c-0.183-0.784-0.644-1.386-1.274-1.855
		c-0.265-0.198-0.475-0.413-0.596-0.717c-0.018-0.044-0.04-0.088-0.065-0.129c-0.127-0.204-0.246-0.415-0.477-0.524
		c-0.043-0.02-0.095-0.058-0.133-0.021c-0.047,0.045,0.012,0.084,0.034,0.122c0.122,0.216,0.073,0.343-0.164,0.425
		c-0.079,0.027-0.161,0.04-0.245,0.054c-0.239,0.039-0.476,0.003-0.714,0.004c-1.039,0.002-1.935,0.355-2.623,1.158
		c-0.128,0.149-0.243,0.316-0.319,0.511c0.039,0.005,0.051,0.01,0.061,0.007c0.796-0.256,1.609-0.332,2.443-0.284
		c0.69,0.04,1.35,0.193,1.989,0.443c0.101,0.04,0.229,0.045,0.284,0.168c-0.152-0.006-0.277-0.135-0.439-0.098
		c0,0,0.005,0.001,0.005,0.001c-0.012-0.038-0.043-0.039-0.075-0.038l0.003,0.002c-0.02-0.035-0.044-0.041-0.074-0.012
		c-0.553-0.233-1.126-0.353-1.728-0.321c-0.046-0.077-0.124-0.063-0.194-0.063c-0.276-0.002-0.553-0.015-0.828,0.002
		c-0.438,0.026-0.872,0.09-1.27,0.292c-0.197,0.1-0.382,0.105-0.585,0.019c-0.895-0.379-1.742-0.861-2.633-1.249
		c-0.599-0.261-1.172-0.582-1.798-0.778c-0.287-0.09-0.58-0.154-0.884-0.107c-0.835,0.127-1.631,0.387-2.41,0.705
		C5.311,19.519,4.513,19.955,3.76,20.473z M20.649,15.711c-0.068,0.096,0.008,0.157,0.06,0.217c0.239,0.277,0.668,0.352,1.071,0.229
		c0.475-0.145,0.909-0.383,1.365-0.57c0.174-0.071,0.358-0.133,0.509-0.259c0.241-0.2,0.222-0.623-0.038-0.735
		c-0.082-0.097-0.171-0.185-0.278-0.253c-0.734-0.468-1.491-0.47-2.259-0.098c-0.201,0.097-0.378,0.236-0.5,0.429
		C20.347,15.034,20.422,15.379,20.649,15.711z M17.3,14.736c0.701-0.197,0.802-0.786,0.626-1.319
		c-0.16-0.484-0.445-0.878-0.864-1.16c-0.4-0.269-0.835-0.447-1.336-0.325c-0.056-0.034-0.113-0.031-0.172-0.004
		c-0.172,0.079-0.308,0.39-0.24,0.566c0.081,0.212,0.162,0.423,0.252,0.631c0.179,0.415,0.32,0.848,0.565,1.233
		c0.17,0.267,0.393,0.465,0.716,0.517C17.016,14.902,17.176,14.871,17.3,14.736z M25.328,19.464
		c-0.099-0.221-0.159-0.405-0.257-0.567c-0.275-0.45-0.689-0.676-1.212-0.615c-0.673,0.079-1.336,0.225-1.986,0.423
		c-0.318,0.097-0.591,0.26-0.777,0.549c-0.051,0.079-0.046,0.109,0.048,0.132c0.311,0.077,0.623,0.117,0.945,0.089
		c0.54-0.047,1.06-0.199,1.592-0.289c0.533-0.091,1.052-0.118,1.52,0.222C25.224,19.425,25.254,19.432,25.328,19.464z
		 M11.161,15.839c0.082,0,0.142,0.007,0.2-0.001c0.32-0.045,0.604,0.049,0.874,0.21c0.232,0.139,0.449,0.299,0.663,0.464
		c0.332,0.257,0.641,0.542,0.997,0.768c0.332,0.211,0.688,0.354,1.095,0.409c-0.082-0.394-0.269-0.715-0.535-0.989
		c-0.437-0.449-0.934-0.828-1.443-1.188C12.34,15.037,11.683,15.155,11.161,15.839z"/>
	<path fill="#FED7AC" d="M20.93,21.991c0.208,0.122,0.433,0.146,0.672,0.142c0.701-0.013,1.402-0.045,2.103-0.071
		c0.741-0.028,1.468,0.089,2.195,0.221c0.412,0.075,0.831,0.111,1.242,0.192c0.715,0.141,1.331,0.503,1.914,0.922
		c0.606,0.436,1.135,0.956,1.604,1.537c0.377,0.501,0.72,1.02,0.849,1.648c0.022,0.105,0.031,0.214,0.032,0.321
		c0.004,0.428-0.17,0.612-0.601,0.635c-0.113,0.006-0.227,0.001-0.34,0.001c-0.017,0.065,0.009,0.12,0.024,0.177
		c0.105,0.387,0.028,0.735-0.221,1.048c-0.41,0.517-0.88,0.963-1.456,1.297c-1.166,0.677-2.423,1.116-3.716,1.469
		c-0.874,0.239-1.75,0.458-2.655,0.549c-0.995,0.099-1.991,0.092-2.987,0.056c-1.02-0.037-2.037-0.104-3.054-0.193
		c-1.659-0.145-3.264-0.513-4.83-1.07c-1.141-0.405-2.281-0.813-3.348-1.392c-0.915-0.497-1.733-1.14-2.58-1.738
		c-0.748-0.528-1.453-1.102-2.018-1.834c-0.404-0.524-0.704-1.099-0.889-1.733c-0.124-0.427-0.054-0.818,0.232-1.166
		c0.014-0.017,0.023-0.037,0.05-0.081c-0.257,0.04-0.455-0.028-0.629-0.189c-0.229-0.211-0.292-0.411-0.192-0.71
		c0.108-0.322,0.324-0.571,0.552-0.811c0.266-0.279,0.575-0.508,0.876-0.745c0.753-0.518,1.552-0.953,2.399-1.298
		c0.779-0.317,1.575-0.577,2.41-0.705c0.304-0.046,0.597,0.017,0.884,0.107c0.627,0.196,1.199,0.517,1.798,0.778
		c0.891,0.388,1.737,0.869,2.633,1.249c0.203,0.086,0.388,0.082,0.585-0.019c0.398-0.202,0.832-0.266,1.27-0.292
		c0.275-0.017,0.552-0.004,0.828-0.002c0.07,0.001,0.148-0.014,0.194,0.063c-0.065,0.011-0.131,0.018-0.195,0.033
		c-0.54,0.122-0.764,0.543-0.562,1.061c0.109,0.281,0.319,0.472,0.574,0.62c0.21,0.122,0.349,0.318,0.365,0.546
		c0.019,0.27-0.006,0.549-0.105,0.811c-0.067-0.089-0.073-0.2-0.11-0.3c-0.09-0.242-0.242-0.447-0.434-0.607
		c-0.424-0.353-0.917-0.578-1.45-0.72c-0.486-0.13-0.982-0.215-1.481-0.242c-0.542-0.03-1.089-0.042-1.609,0.174
		c-0.109,0.045-0.197,0.141-0.324,0.143c0.008-0.028,0.014-0.058,0.026-0.084c0.199-0.443,0.499-0.801,0.9-1.075
		c0.049-0.033,0.116-0.064,0.073-0.139c-0.039-0.067-0.095-0.024-0.141-0.002c-1.928,0.914-1.736,3.011-0.599,3.931
		c0.433,0.35,0.916,0.608,1.438,0.798c0.443,0.161,0.903,0.227,1.368,0.279c-0.041,0.044-0.083,0.084-0.138,0.111
		c-0.292,0.145-0.548,0.342-0.768,0.582c-0.349,0.381-0.406,0.784-0.203,1.239c0.271,0.606,0.78,0.929,1.374,1.122
		c0.514,0.167,1.052,0.211,1.595,0.196c0.352-0.01,0.647-0.126,0.85-0.416c0.443-0.634,0.733-1.316,0.611-2.115
		c-0.007-0.046,0.005-0.083,0.046-0.108c0.017,0.006,0.035,0.009,0.05,0.018c0.923,0.538,1.917,0.696,2.976,0.613
		c1.599-0.125,2.932-1.932,1.682-3.735c-0.039-0.057-0.069-0.175-0.166-0.122c-0.103,0.056-0.009,0.137,0.021,0.199
		c0.201,0.426,0.305,0.868,0.246,1.341c-0.089,0.089-0.092-0.018-0.115-0.056c-0.208-0.346-0.492-0.612-0.837-0.82
		c-0.614-0.371-1.28-0.591-1.986-0.698c-0.643-0.097-1.275-0.078-1.891,0.161c-0.286,0.111-0.498,0.324-0.739,0.497
		c0.037-0.267,0.065-0.542,0.251-0.754c0.199-0.227,0.43-0.416,0.752-0.434c0.425-0.023,0.785-0.168,1.027-0.535
		c0.216-0.327,0.181-0.605-0.113-0.863c-0.12-0.105-0.26-0.187-0.39-0.28c0.162-0.037,0.287,0.092,0.439,0.098
		c0.045,0.016,0.09,0.031,0.135,0.047c0.014,0.008,0.029,0.017,0.043,0.025c0.483,0.214,0.938,0.473,1.348,0.811
		C20.707,21.798,20.779,21.942,20.93,21.991z"/>
	<path fill="#CA945F" d="M32.105,11.248c-0.006-0.01-0.011-0.021-0.017-0.031c0.013,0.002,0.027,0.004,0.04,0.006
		C32.121,11.231,32.113,11.24,32.105,11.248z"/>
	<path fill="#262221" d="M14.492,25.581c-0.464-0.052-0.925-0.118-1.368-0.279c-0.523-0.19-1.006-0.447-1.438-0.798
		c-1.137-0.92-1.329-3.016,0.599-3.931c0.047-0.022,0.102-0.065,0.141,0.002c0.043,0.074-0.024,0.105-0.073,0.139
		c-0.401,0.274-0.701,0.632-0.9,1.075c-0.012,0.027-0.017,0.056-0.026,0.084c-0.374,0.754-0.178,1.726,0.469,2.28
		c0.617,0.528,1.34,0.833,2.136,0.964c0.671,0.11,1.327,0.062,1.956-0.219c0.281-0.126,0.483-0.325,0.604-0.61
		c0.118-0.277,0.192-0.566,0.244-0.862c0.099-0.262,0.124-0.541,0.105-0.811c-0.016-0.228-0.156-0.424-0.365-0.546
		c-0.255-0.149-0.465-0.339-0.574-0.62c-0.202-0.518,0.022-0.939,0.562-1.061c0.064-0.014,0.13-0.022,0.195-0.033
		c0.602-0.032,1.175,0.088,1.728,0.321c0.025,0.004,0.049,0.008,0.074,0.012c0,0-0.003-0.002-0.003-0.002
		c0.011,0.041,0.042,0.041,0.075,0.038c0,0-0.005-0.001-0.005-0.001c0.131,0.093,0.271,0.175,0.39,0.28
		c0.294,0.258,0.329,0.536,0.113,0.863c-0.242,0.367-0.603,0.512-1.027,0.535c-0.322,0.018-0.553,0.207-0.752,0.434
		c-0.187,0.213-0.214,0.487-0.251,0.754c0,0,0,0.001,0,0.001c-0.003,0.016-0.007,0.032-0.01,0.048
		c-0.24,0.689-0.151,1.299,0.434,1.788c0.037,0.031,0.07,0.066,0.108,0.096c1.053,0.841,2.252,1.094,3.554,0.831
		c0.787-0.159,1.387-0.866,1.453-1.618c0.029-0.036,0.029-0.078,0.023-0.121c0.002-0.036,0.003-0.072,0.005-0.108
		c0.059-0.473-0.045-0.916-0.246-1.341c-0.029-0.062-0.123-0.142-0.021-0.199c0.097-0.053,0.127,0.066,0.166,0.122
		c1.25,1.803-0.083,3.609-1.682,3.735c-1.059,0.083-2.053-0.075-2.976-0.613c-0.015-0.009-0.033-0.012-0.05-0.018
		c-0.379-0.259-0.717-0.559-0.984-0.935c-0.075-0.152-0.155-0.303-0.198-0.496c-0.13,0.221-0.312,0.345-0.495,0.468
		C15.649,25.493,15.078,25.572,14.492,25.581z"/>
	<path fill="#B9824D" d="M20.93,21.991c-0.151-0.049-0.224-0.193-0.338-0.287c-0.409-0.338-0.864-0.597-1.347-0.811
		c-0.014-0.008-0.029-0.017-0.043-0.025c-0.045-0.016-0.09-0.031-0.135-0.047c-0.054-0.123-0.182-0.128-0.284-0.168
		c-0.64-0.25-1.299-0.403-1.989-0.443c-0.834-0.049-1.648,0.028-2.443,0.284c-0.01,0.003-0.023-0.002-0.061-0.007
		c0.077-0.195,0.192-0.362,0.319-0.511c0.687-0.803,1.584-1.156,2.623-1.158c0.238,0,0.475,0.035,0.714-0.004
		c0.083-0.013,0.165-0.026,0.245-0.054c0.237-0.081,0.285-0.208,0.164-0.425c-0.022-0.038-0.081-0.078-0.034-0.122
		c0.039-0.037,0.091,0.001,0.133,0.021c0.231,0.109,0.35,0.32,0.477,0.524c0.025,0.041,0.047,0.084,0.065,0.129
		c0.121,0.304,0.332,0.52,0.596,0.717c0.629,0.47,1.091,1.071,1.274,1.855c0.029,0.123,0.057,0.245,0.09,0.367
		C20.971,21.886,20.984,21.942,20.93,21.991z"/>
	<path fill="#FDEEB7" d="M15.726,11.932c0.501-0.121,0.936,0.056,1.336,0.325c0.419,0.282,0.704,0.676,0.864,1.16
		c0.176,0.533,0.075,1.122-0.626,1.319c-0.136-0.007-0.286,0.037-0.407-0.025c-0.254-0.13-0.469-0.315-0.578-0.588
		c-0.215-0.539-0.449-1.067-0.734-1.574C15.425,12.272,15.475,12.132,15.726,11.932z"/>
	<path fill="#FDEEB7" d="M20.649,15.711c-0.227-0.333-0.302-0.677-0.071-1.04c0.123-0.192,0.299-0.331,0.5-0.429
		c0.769-0.372,1.525-0.37,2.259,0.098c0.108,0.069,0.197,0.157,0.278,0.253c0.128,0.344,0.073,0.527-0.242,0.631
		c-0.559,0.184-1.099,0.411-1.637,0.65C21.355,16.047,20.977,16,20.649,15.711z"/>
	<path fill="#26201F" d="M25.328,19.464c-0.074-0.032-0.104-0.039-0.127-0.056c-0.468-0.34-0.988-0.313-1.52-0.222
		c-0.532,0.091-1.052,0.243-1.592,0.289c-0.322,0.028-0.634-0.013-0.945-0.089c-0.094-0.023-0.099-0.052-0.048-0.132
		c0.186-0.29,0.459-0.452,0.777-0.549c0.65-0.198,1.312-0.344,1.986-0.423c0.523-0.061,0.937,0.165,1.212,0.615
		C25.169,19.059,25.229,19.244,25.328,19.464z"/>
	<path fill="#25201F" d="M11.161,15.839c0.522-0.685,1.18-0.802,1.851-0.327c0.509,0.36,1.006,0.739,1.443,1.188
		c0.267,0.274,0.453,0.595,0.535,0.989c-0.407-0.055-0.762-0.198-1.095-0.409c-0.356-0.226-0.666-0.511-0.997-0.768
		c-0.213-0.165-0.43-0.326-0.663-0.464c-0.27-0.161-0.554-0.255-0.874-0.21C11.303,15.846,11.242,15.839,11.161,15.839z"/>
	<path fill="#C99254" d="M20.649,15.711c0.328,0.288,0.706,0.335,1.089,0.164c0.537-0.24,1.077-0.466,1.637-0.65
		c0.315-0.104,0.37-0.287,0.242-0.631c0.259,0.111,0.279,0.535,0.038,0.735c-0.151,0.125-0.334,0.187-0.509,0.259
		c-0.456,0.187-0.89,0.426-1.365,0.57c-0.404,0.123-0.833,0.048-1.071-0.229C20.658,15.869,20.581,15.808,20.649,15.711z"/>
	<path fill="#C99254" d="M15.726,11.932c-0.251,0.199-0.301,0.339-0.145,0.616c0.285,0.507,0.52,1.035,0.734,1.574
		c0.109,0.274,0.324,0.459,0.578,0.588c0.121,0.062,0.27,0.018,0.407,0.025c-0.124,0.135-0.284,0.166-0.453,0.139
		c-0.322-0.052-0.545-0.249-0.716-0.517c-0.245-0.385-0.386-0.818-0.565-1.233c-0.09-0.208-0.171-0.42-0.252-0.631
		c-0.067-0.176,0.068-0.488,0.24-0.566C15.613,11.901,15.669,11.898,15.726,11.932z"/>
	<path fill="#FED7AC" d="M18.561,20.688c-0.025-0.004-0.049-0.008-0.074-0.012C18.517,20.647,18.541,20.653,18.561,20.688z"/>
	<path fill="#FED7AC" d="M18.632,20.724c-0.033,0.002-0.064,0.002-0.075-0.038C18.589,20.685,18.621,20.686,18.632,20.724z"/>
	<path fill="#FDEEB8" d="M16.837,23.426c-0.051,0.296-0.126,0.584-0.244,0.862c-0.121,0.285-0.323,0.484-0.604,0.61
		c-0.629,0.281-1.285,0.329-1.956,0.219c-0.797-0.131-1.519-0.435-2.136-0.964c-0.647-0.554-0.843-1.525-0.469-2.28
		c0.128-0.002,0.215-0.098,0.324-0.143c0.52-0.216,1.067-0.204,1.609-0.174c0.5,0.028,0.995,0.113,1.481,0.242
		c0.533,0.142,1.026,0.367,1.45,0.72c0.192,0.16,0.343,0.365,0.434,0.607C16.765,23.226,16.77,23.338,16.837,23.426z M15.208,22.657
		c0.001-0.079-0.032-0.128-0.113-0.134c-0.077-0.005-0.128,0.027-0.135,0.108c-0.007,0.086,0.03,0.139,0.121,0.141
		C15.158,22.775,15.203,22.736,15.208,22.657z M12.845,22.701c0.062-0.013,0.122-0.048,0.119-0.124
		c-0.002-0.084-0.061-0.13-0.145-0.123c-0.074,0.006-0.125,0.054-0.119,0.13C12.705,22.658,12.76,22.695,12.845,22.701z
		 M15.1,23.544c-0.006-0.077-0.045-0.123-0.125-0.116c-0.072,0.006-0.124,0.042-0.124,0.123c0,0.09,0.05,0.128,0.136,0.123
		C15.069,23.67,15.099,23.62,15.1,23.544z M14.126,24.147c-0.08,0.008-0.133,0.052-0.137,0.136
		c-0.003,0.073,0.041,0.109,0.112,0.113c0.078,0.004,0.128-0.028,0.133-0.111C14.24,24.21,14.213,24.156,14.126,24.147z"/>
	<path fill="#FDEEB8" d="M22.639,24.734c-0.066,0.752-0.666,1.459-1.453,1.618c-1.302,0.263-2.501,0.009-3.554-0.831
		c-0.037-0.03-0.071-0.065-0.108-0.096c-0.586-0.489-0.674-1.098-0.434-1.788c0.003-0.016,0.007-0.032,0.01-0.048
		c0,0,0-0.001,0-0.001c0.241-0.173,0.453-0.387,0.739-0.497c0.616-0.239,1.248-0.258,1.891-0.161
		c0.706,0.107,1.372,0.327,1.986,0.698c0.345,0.208,0.628,0.474,0.837,0.82c0.023,0.038,0.026,0.145,0.115,0.056
		c-0.002,0.036-0.003,0.072-0.005,0.108C22.632,24.649,22.631,24.691,22.639,24.734z M18.388,25.391
		c0.076-0.021,0.141-0.056,0.128-0.146c-0.011-0.08-0.065-0.132-0.15-0.123c-0.072,0.008-0.125,0.055-0.119,0.132
		C18.255,25.335,18.305,25.383,18.388,25.391z M18.415,24.359c0.003-0.073-0.02-0.131-0.103-0.14
		c-0.074-0.009-0.133,0.015-0.144,0.097c-0.011,0.081,0.016,0.143,0.11,0.151C18.355,24.473,18.404,24.441,18.415,24.359z
		 M19.1,23.463c-0.005-0.074-0.041-0.13-0.116-0.137c-0.078-0.007-0.124,0.047-0.13,0.119c-0.007,0.082,0.037,0.145,0.122,0.146
		C19.051,23.593,19.092,23.538,19.1,23.463z M20.719,24.853c-0.014-0.077-0.058-0.13-0.144-0.127
		c-0.074,0.003-0.104,0.053-0.103,0.121c0,0.091,0.05,0.13,0.138,0.125C20.681,24.968,20.717,24.927,20.719,24.853z"/>
	<path fill="#FDECD8" d="M14.492,25.581c0.586-0.009,1.157-0.088,1.689-0.353c0.229,0.069,0.462,0.021,0.693,0.028
		c0.266,0.377,0.605,0.677,0.984,0.935c-0.041,0.025-0.053,0.062-0.046,0.108c0.122,0.799-0.168,1.481-0.611,2.115
		c-0.203,0.29-0.497,0.407-0.85,0.416c-0.543,0.015-1.082-0.029-1.595-0.196c-0.593-0.193-1.103-0.515-1.374-1.122
		c-0.203-0.455-0.146-0.858,0.203-1.239c0.22-0.24,0.475-0.437,0.768-0.582C14.409,25.665,14.451,25.625,14.492,25.581z
		 M15.661,28.041c0.122-0.008,0.266-0.001,0.409-0.026c0.629-0.112,1.082-0.453,1.372-1.02c0.13-0.255-0.043-0.55-0.328-0.554
		c-0.099-0.001-0.187,0.036-0.277,0.068c-0.331,0.115-0.67,0.194-1.023,0.157c-0.265-0.027-0.506-0.11-0.639-0.369
		c-0.086-0.167-0.22-0.253-0.406-0.241c-0.184,0.012-0.313,0.116-0.384,0.284c-0.098,0.234-0.108,0.482-0.057,0.725
		C14.463,27.704,14.932,28.046,15.661,28.041z"/>
	<path fill="#CA945F" d="M19.202,20.868c0.014,0.008,0.029,0.017,0.043,0.025C19.231,20.885,19.216,20.876,19.202,20.868z"/>
	<path fill="#FED7AC" d="M16.874,25.256c-0.231-0.007-0.465,0.041-0.693-0.028c0.183-0.123,0.366-0.247,0.495-0.468
		C16.72,24.953,16.799,25.104,16.874,25.256z"/>
	<path fill="#FED7AC" d="M22.639,24.734c-0.008-0.043-0.008-0.085,0.023-0.121C22.668,24.656,22.668,24.698,22.639,24.734z"/>
	<path fill="#FED7AC" d="M17.1,23.59c-0.003,0.016-0.007,0.032-0.01,0.048C17.093,23.622,17.097,23.606,17.1,23.59z"/>
	<path fill="#F2BC86" d="M15.208,22.657c-0.005,0.078-0.05,0.117-0.128,0.116c-0.091-0.002-0.128-0.055-0.121-0.141
		c0.007-0.082,0.058-0.113,0.135-0.108C15.176,22.529,15.209,22.578,15.208,22.657z"/>
	<path fill="#F2BC86" d="M12.845,22.701c-0.084-0.005-0.139-0.043-0.145-0.117c-0.006-0.076,0.045-0.124,0.119-0.13
		c0.084-0.007,0.142,0.04,0.145,0.123C12.966,22.653,12.907,22.688,12.845,22.701z"/>
	<path fill="#F2BC86" d="M15.1,23.544c-0.001,0.076-0.031,0.126-0.113,0.131c-0.086,0.005-0.136-0.034-0.136-0.123
		c0-0.081,0.053-0.117,0.124-0.123C15.055,23.421,15.095,23.467,15.1,23.544z"/>
	<path fill="#F2BC86" d="M14.126,24.147c0.087,0.009,0.114,0.063,0.109,0.138c-0.005,0.082-0.056,0.115-0.133,0.111
		c-0.07-0.004-0.115-0.04-0.112-0.113C13.994,24.198,14.046,24.155,14.126,24.147z"/>
	<path fill="#F2BC86" d="M18.388,25.391c-0.083-0.007-0.134-0.056-0.14-0.136c-0.006-0.077,0.046-0.124,0.119-0.132
		c0.084-0.009,0.138,0.043,0.15,0.123C18.529,25.335,18.465,25.37,18.388,25.391z"/>
	<path fill="#F2BC86" d="M18.415,24.359c-0.011,0.081-0.06,0.113-0.137,0.107c-0.093-0.008-0.12-0.069-0.11-0.151
		c0.011-0.082,0.071-0.106,0.144-0.097C18.395,24.229,18.418,24.286,18.415,24.359z"/>
	<path fill="#F2BC86" d="M19.1,23.463c-0.009,0.075-0.049,0.131-0.124,0.129c-0.085-0.002-0.129-0.064-0.122-0.146
		c0.006-0.072,0.052-0.126,0.13-0.119C19.06,23.333,19.096,23.388,19.1,23.463z"/>
	<path fill="#F2BC86" d="M20.719,24.853c-0.002,0.075-0.038,0.115-0.11,0.12c-0.088,0.005-0.137-0.034-0.138-0.125
		c0-0.069,0.03-0.119,0.103-0.121C20.661,24.723,20.705,24.775,20.719,24.853z"/>
	<path fill="#231F1C" d="M15.661,28.041c-0.73,0.005-1.198-0.337-1.333-0.976c-0.051-0.242-0.042-0.491,0.057-0.725
		c0.071-0.168,0.199-0.272,0.384-0.284c0.186-0.012,0.32,0.074,0.406,0.241c0.133,0.259,0.374,0.342,0.639,0.369
		c0.353,0.036,0.692-0.042,1.023-0.157c0.09-0.032,0.179-0.069,0.277-0.068c0.286,0.004,0.459,0.299,0.328,0.554
		c-0.289,0.567-0.743,0.908-1.372,1.02C15.927,28.04,15.784,28.033,15.661,28.041z"/>
</g>
</svg>
