<?xml version="1.0" encoding="utf-8"?>
<!-- Generator: Adobe Illustrator 26.5.0, SVG Export Plug-In . SVG Version: 6.00 Build 0)  -->
<svg version="1.1" id="Layer_1" xmlns="http://www.w3.org/2000/svg" xmlns:xlink="http://www.w3.org/1999/xlink" x="0px" y="0px"
	 width="36px" height="36px" viewBox="0 0 36 36" enable-background="new 0 0 36 36" xml:space="preserve">
<g>
	<linearGradient id="SVGID_1_" gradientUnits="userSpaceOnUse" x1="32.0467" y1="7.3379" x2="10.6923" y2="28.6923">
		<stop  offset="0" style="stop-color:#7DA1C3"/>
		<stop  offset="1" style="stop-color:#E9EEF4"/>
	</linearGradient>
	<path fill="url(#SVGID_1_)" d="M34.343,12.87V23.13c0,2.77-1.467,5.333-3.855,6.736l-8.531,5.011
		c-1.222,0.718-2.59,1.077-3.958,1.077L18,36c-0.005-0.015-0.01-0.031-0.015-0.046c-0.339-1.055-0.327-2.003-0.066-2.859
		c1.002-3.297,5.686-5.245,8.16-6.81c3.126-1.978,3.062-4.175,3.062-4.175s0-6.181,0-8.294c0-2.114-1.588-3.245-1.588-3.245
		s-2.637-1.631-3.417-2.055c-0.779-0.426-2.042-0.128-2.042-0.128l-3.788,2.163l-1.004,0.573l0.002,0.078
		c-0.254,0.064-0.501,0.164-0.733,0.301l-0.1,0.059c-0.044,0.023-0.089,0.047-0.133,0.073c-1.786,1.021-3.19,1.829-3.19,1.829
		s-1.085,0.295-1.375,1.869c-0.001,0.001-0.001,0.004-0.002,0.005c-0.048,0.208-0.074,0.423-0.074,0.642v0.319
		c-0.038,2.099-0.038,3.757-0.038,3.757s-0.082,0.528,0.247,1.163c0.229,0.564,0.64,1.048,1.182,1.367l3.483,2.046
		c0.349,0.204,0.731,0.328,1.119,0.371c0.235,0.026,0.472,0.023,0.706-0.011l-0.696,0.391l-2.936,1.649
		c-2.382,1.489-4.126-0.255-4.126-0.255l-1.999-1.191C6.43,24.308,6.77,21.628,6.77,21.628V11.506c0,0,4.678-2.807,8.591-5.188
		c1.753-1.067,2.465-2.446,2.717-3.643c0.275-1.305,0.002-2.394-0.064-2.628c1.364,0.002,2.726,0.362,3.943,1.076l8.531,5.011
		C32.876,7.537,34.343,10.1,34.343,12.87z"/>
	<path fill="#FEFEFE" d="M11.908,21.217c-0.329-0.635-0.247-1.163-0.247-1.163s0-1.658,0.038-3.757v3.858
		C11.699,20.525,11.772,20.885,11.908,21.217z"/>
	
		<linearGradient id="SVGID_00000162349978953081084750000016885636159865429674_" gradientUnits="userSpaceOnUse" x1="25.3075" y1="7.3075" x2="3.9529" y2="28.662">
		<stop  offset="0" style="stop-color:#7DA1C3"/>
		<stop  offset="1" style="stop-color:#E9EEF4"/>
	</linearGradient>
	<path fill="url(#SVGID_00000162349978953081084750000016885636159865429674_)" d="M26.079,26.285
		c-2.474,1.565-7.158,3.513-8.16,6.81c-0.261,0.856-0.273,1.804,0.066,2.859c-1.363-0.002-2.726-0.362-3.943-1.077l-8.53-5.011
		C3.123,28.463,1.657,25.9,1.657,23.13V12.87c0-2.77,1.466-5.333,3.855-6.736l8.53-5.011c1.222-0.718,2.591-1.076,3.959-1.076L18,0
		c0,0,0.005,0.016,0.014,0.047c0.066,0.233,0.339,1.323,0.064,2.628c-0.252,1.197-0.963,2.576-2.717,3.643
		c-3.913,2.381-8.591,5.188-8.591,5.188v10.122c0,0-0.34,2.68,1.872,3.955l1.999,1.191c0,0,1.744,1.744,4.126,0.255l2.936-1.649
		l0.696-0.391l4.321-2.426c0,0,1.342-0.379,1.581-2.623v-3.963c0-0.321-0.054-0.633-0.157-0.927
		c-0.001-0.001-0.001-0.002-0.002-0.004c-0.174-0.38-0.503-0.837-1.124-1.231c-1.361-0.864-3.7-2.267-3.7-2.267
		s-0.364-0.285-0.991-0.369l-0.002-0.047c-0.34-0.04-0.685-0.017-1.018,0.069l-0.002-0.078l1.004-0.573l3.788-2.163
		c0,0,1.262-0.297,2.042,0.128c0.78,0.425,3.417,2.055,3.417,2.055s1.588,1.131,1.588,3.245c0,2.113,0,8.294,0,8.294
		S29.204,24.308,26.079,26.285z"/>
</g>
<g>
</g>
<g>
</g>
<g>
</g>
<g>
</g>
<g>
</g>
<g>
</g>
</svg>
