<svg width="36" height="36" viewBox="0 0 36 36" fill="none" xmlns="http://www.w3.org/2000/svg">
<circle cx="18" cy="18" r="18" fill="#7987A1"/>
<path d="M17.5096 23.5032C20.6051 23.5605 23.6433 23.6178 26.7389 23.7325C26.6242 24.1911 26.5096 24.5924 26.4522 24.9936C26.2803 25.5669 26.1083 26.0828 25.9936 26.6561C25.9363 26.9427 25.8217 27 25.535 27C21.6943 27 17.9108 27 14.0701 27C12.9809 27 11.8917 27 10.7452 27C11.2611 24.9936 11.7771 23.1019 12.293 21.0955C11.4904 21.3822 10.8025 21.6688 10 22.0127C10.2293 21.1529 10.4586 20.4076 10.7452 19.6051C10.7452 19.4904 10.9172 19.4331 11.0318 19.4331C11.5478 19.2038 12.121 19.0318 12.6369 18.8025C12.8089 18.7452 12.9809 18.5732 12.9809 18.4013C13.7834 15.4204 14.586 12.4395 15.3885 9.4586C15.4459 9.11465 15.5605 9 15.9618 9C17.5669 9 19.172 9 20.7771 9C20.8917 9 21.0064 9 21.1783 9C20.5478 11.3503 19.9745 13.7006 19.3439 16.1656C20.2611 15.7643 21.121 15.4204 22.0955 15.0764C21.9809 15.535 21.8089 15.9363 21.7516 16.3376C21.6369 17.2548 21.121 17.7707 20.2038 18C19.8025 18.1146 19.4013 18.2866 19 18.4586C18.8854 18.5159 18.7134 18.6879 18.6561 18.8025C18.2548 20.3503 17.8535 21.8408 17.5096 23.3885C17.5096 23.3885 17.5096 23.4459 17.5096 23.5032Z" fill="white"/>
</svg>
