<svg width="36" height="36" viewBox="0 0 36 36" fill="none" xmlns="http://www.w3.org/2000/svg">
<circle cx="18" cy="18" r="18" fill="#567BFF"/>
<path d="M16.5191 10.3724L13.8808 12.9062H10V10.3724H16.5191Z" fill="white"/>
<path d="M16.5455 9L13.8965 9.79179H10V9H16.5455Z" fill="white"/>
<path d="M25.7303 12.8006V10.478C25.7303 10.4197 25.683 10.3724 25.6247 10.3724H20.1877C20.1294 10.3724 20.0822 10.4197 20.0822 10.478V12.8006C20.0822 12.8589 20.1294 12.9062 20.1877 12.9062H25.6247C25.683 12.9062 25.7303 12.8589 25.7303 12.8006Z" fill="white"/>
<path d="M25.7303 9.68622V9.10557C25.7303 9.04727 25.683 9 25.6247 9L10.1056 9C10.0473 9 10 9.04727 10 9.10557V9.68622C10 9.74452 10.0473 9.79179 10.1056 9.79179L25.6247 9.79179C25.683 9.79179 25.7303 9.74452 25.7303 9.68622Z" fill="white"/>
<path d="M22.1935 18.2375V17.3401C22.1935 17.2527 22.1226 17.1818 22.0351 17.1818H13.6949C13.6075 17.1818 13.5366 17.2527 13.5366 17.3401V18.2375C13.5366 18.3249 13.6075 18.3958 13.6949 18.3958H22.0351C22.1226 18.3958 22.1935 18.3249 22.1935 18.2375Z" fill="white"/>
<path d="M22.1935 20.0323V19.1349C22.1935 19.0475 22.1226 18.9766 22.0351 18.9766H13.6949C13.6075 18.9766 13.5366 19.0475 13.5366 19.1349V20.0323C13.5366 20.1197 13.6075 20.1906 13.6949 20.1906H22.0351C22.1226 20.1906 22.1935 20.1197 22.1935 20.0323Z" fill="white"/>
<path d="M16.4398 12.9062L19.6597 10.3724V27.0001H16.4398V12.9062Z" fill="white"/>
<path d="M14.6438 12.8763C14.5487 12.8757 14.5028 12.7595 14.5718 12.6941L16.99 10.4014C17.0096 10.3828 17.0356 10.3724 17.0626 10.3724H19.5543C19.6126 10.3724 19.6599 10.4197 19.6599 10.478V12.8C19.6599 12.8585 19.6122 12.9059 19.5537 12.9055L14.6438 12.8763Z" fill="white"/>
</svg>
