<svg width="36" height="36" viewBox="0 0 36 36" fill="none" xmlns="http://www.w3.org/2000/svg">
<circle cx="18" cy="18" r="18" fill="#FF0000"/>
<rect x="9" y="9" width="18" height="18" fill="white"/>
<path d="M7 29V7H29V29H7ZM26.6036 19.8486H23.3899V16.557H26.6036V9.61485H19.6614V12.6569H16.2606V9.61485H9.31844V16.557H12.4229V19.8486H9.31844V26.7908H16.2606V23.6083H19.6614V26.7908H26.6036V19.8486Z" fill="#FF0000"/>
<path d="M22.5942 19.8487H19.6614V22.8127H16.2605V19.8487H13.2184V16.557H16.2605V13.437H19.6614V16.557H22.5942V19.8487Z" fill="#FF0000"/>
<path d="M14.4978 14.7942H11.0813V11.3777H14.4978V14.7942Z" fill="#FF0000"/>
<path d="M14.4978 25.028H11.0813V21.6115H14.4978V25.028Z" fill="#FF0000"/>
<path d="M24.8408 25.028H21.4243V21.6115H24.8408V25.028Z" fill="#FF0000"/>
<path d="M24.8408 14.7942H21.4243V11.3777H24.8408V14.7942Z" fill="#FF0000"/>
</svg>
