<svg version="1.2" xmlns="http://www.w3.org/2000/svg" viewBox="0 0 299.99 299.99" width="36" height="36">
	<title>SPCFIN Icon Positive 1</title>
	<defs>
		<clipPath clipPathUnits="userSpaceOnUse" id="cp1">
			<path d="m150 300c-82.95 0-150-67.05-150-150 0-82.95 67.05-150 150-150 82.95 0 150 67.05 150 150 0 82.95-67.05 150-150 150z"/>
		</clipPath>
	</defs>
	<style>
		.s0 { fill: #0056ff } 
		.s1 { fill: #ffffff } 
	</style>
	<g id="Layer 1">
		<g id="&lt;Clip Group&gt;" clip-path="url(#cp1)">
			<path fill-rule="evenodd" class="s0" d="m300 72.1v224c0 2.2-1.8 3.9-3.9 3.9h-224c-1.1 0-2-0.4-2.7-1.1l-68.3-68.3c-0.7-0.7-1.1-1.7-1.1-2.7v-224c0-2.1 1.7-3.9 3.9-3.9h224c1.1 0 2.1 0.4 2.8 1.2l68.2 68.2c0.7 0.7 1.1 1.6 1.1 2.7z"/>
			<path fill-rule="evenodd" class="s1" d="m250.8 190.2c-1.3-3.2-1.3-6.7 0-9.9l11.5-27.7c0.8-1.9-0.1-4.1-2-5-17-8-29.9-21.5-37.4-37.4-0.9-1.9-3.1-2.8-5-2l-27.7 11.5c-3.2 1.3-6.8 1.3-10 0l-27.6-11.5c-1.9-0.8-4.1 0.1-5 2-7.6 16-20.4 29.4-37.4 37.4-1.9 0.9-2.8 3.1-2 5l11.5 27.7c1.3 3.2 1.3 6.7 0 9.9l-11.5 27.7c-0.8 1.9 0.1 4.1 2 5 15.9 7.5 29.4 20.4 37.4 37.5 0.9 1.8 3.1 2.7 5 1.9l27.6-11.5c3.3-1.3 6.8-1.3 10 0l27.7 11.5c1.9 0.8 4.1-0.1 5-1.9 8-17.1 21.5-30 37.4-37.5 1.9-0.9 2.8-3.1 2-5zm-7.4-2.6c-23.8 11.2-43.9 30.4-55.9 55.8-0.9 2-3.7 2-4.7 0-12-25.4-32.1-44.6-55.8-55.8-2-1-2-3.8 0-4.8 25.4-11.9 44.6-32 55.8-55.8 0.9-2 3.8-2 4.7 0 11.2 23.8 30.5 43.9 55.8 55.8 2 1 2.1 3.8 0.1 4.8z"/>
		</g>
	</g>
</svg>