<svg width="36" height="36" viewBox="0 0 36 36" fill="none" xmlns="http://www.w3.org/2000/svg">
<circle cx="18" cy="18" r="18" fill="#54BB6B"/>
<path d="M29.6921 15.1113C28.993 12.2761 27.2823 9.79386 24.8817 8.13125C22.481 6.46864 19.5558 5.74016 16.6558 6.08275C13.6171 6.41056 10.8234 7.90213 8.86038 10.2447C7.28563 12.1008 6.31017 14.3904 6.06252 16.8119C5.81486 19.2334 6.30665 21.6731 7.47306 23.8096C7.50221 23.8887 7.5572 23.9556 7.62914 23.9996C7.70107 24.0436 7.78575 24.0619 7.86944 24.0518H18.0211C18.5178 24.0475 19.0126 23.9884 19.4965 23.8756C20.3151 23.6791 21.0835 23.3135 21.7524 22.8023C22.4212 22.2911 22.9757 21.6455 23.3801 20.9072C23.7846 20.1688 24.03 19.354 24.1007 18.5151C24.1714 17.6762 24.0657 16.8318 23.7905 16.0362C23.7905 15.816 23.6144 15.7499 23.4162 15.7719H20.025L20.2232 15.9701C20.6933 16.4869 20.9695 17.1508 21.0047 17.8486C21.0398 18.5463 20.8317 19.2347 20.4159 19.7961C20 20.3575 19.4022 20.7571 18.7245 20.9269C18.0468 21.0966 17.3312 21.0258 16.6998 20.7266C16.1595 20.4523 15.7135 20.0226 15.4192 19.4929C15.1249 18.9632 14.9958 18.3575 15.0482 17.7538C15.1282 17.0155 15.4738 16.3314 16.0208 15.8291C16.5677 15.3267 17.2786 15.0403 18.0211 15.0232H26.1908C26.2301 15.017 26.2703 15.0191 26.3088 15.0293C26.3473 15.0395 26.3832 15.0576 26.4143 15.0825C26.4454 15.1073 26.4709 15.1384 26.4893 15.1737C26.5077 15.209 26.5186 15.2478 26.5211 15.2875C26.9814 16.7094 27.0723 18.225 26.7854 19.6917C26.4938 21.234 25.8042 22.6734 24.785 23.8672C23.7657 25.0609 22.4521 25.9675 20.9745 26.4971C19.4969 27.0268 17.9065 27.161 16.3609 26.8866C14.8154 26.6122 13.3685 25.9386 12.1635 24.9326C12.0482 24.8309 11.8989 24.7759 11.7451 24.7785H8.3539C8.3539 24.7785 8.17773 24.7785 8.11167 24.7785C8.63563 25.5261 9.24127 26.213 9.91738 26.8264C11.312 28.1375 13.007 29.0861 14.8538 29.5891C16.7006 30.092 18.6426 30.134 20.5094 29.7112C22.0854 29.3823 23.5789 28.7391 24.9008 27.8201C26.2226 26.9011 27.3457 25.7251 28.2028 24.3623C29.0599 22.9995 29.6336 21.4779 29.8895 19.8885C30.1454 18.299 30.0783 16.6743 29.6921 15.1113ZM24.3631 12.0284H18.0211C17.2038 12.0364 16.3966 12.2091 15.6476 12.5362C14.8987 12.8633 14.2234 13.3382 13.6622 13.9323C13.101 14.5264 12.6653 15.2276 12.3813 15.994C12.0973 16.7603 11.9708 17.5761 12.0094 18.3924C12.0623 19.1609 12.2721 19.9103 12.626 20.5945L12.7801 20.9468H9.67515C9.49899 20.9468 9.47696 20.9468 9.43292 20.7266C8.72401 18.5928 8.85794 16.2687 9.80728 14.2305C10.4458 12.8123 11.4484 11.5885 12.7131 10.6835C13.9779 9.77838 15.4598 9.22432 17.0081 9.07759C18.4093 8.89866 19.833 9.05933 21.159 9.54607C22.4851 10.0328 23.6746 10.8313 24.6273 11.8742V12.0284H24.3631Z" fill="white"/>
</svg>
