<svg width="36" height="36" viewBox="0 0 36 36" fill="none" xmlns="http://www.w3.org/2000/svg">
<path fill-rule="evenodd" clip-rule="evenodd" d="M9.94345 6.11787L5.02024 16.6845C5.00151 16.7238 4.99557 16.7682 5.0033 16.8112C5.01103 16.8542 5.03202 16.8935 5.0632 16.9235L18.3596 29.9423C18.3974 29.9793 18.4477 30 18.5 30C18.5523 30 18.6026 29.9793 18.6404 29.9423L31.9368 16.9243C31.968 16.8943 31.989 16.855 31.9967 16.812C32.0044 16.769 31.9985 16.7246 31.9798 16.6853L27.0566 6.11869C27.0407 6.0832 27.0151 6.05314 26.9829 6.03209C26.9508 6.01105 26.9134 5.99991 26.8752 6.00002H10.1264C10.088 5.99953 10.0503 6.0104 10.0179 6.03131C9.98541 6.05222 9.95956 6.08229 9.94345 6.11787V6.11787V6.11787Z" fill="#50AF95"/>
<path fill-rule="evenodd" clip-rule="evenodd" d="M20.2083 17.7696C20.1128 17.777 19.6196 17.807 18.5195 17.807C17.6445 17.807 17.0232 17.7802 16.8052 17.7696C13.4237 17.6176 10.8996 17.0162 10.8996 16.296C10.8996 15.5758 13.4237 14.9752 16.8052 14.8207V17.1706C17.0264 17.1868 17.6596 17.2251 18.5346 17.2251C19.5846 17.2251 20.1104 17.1803 20.2051 17.1714V14.8224C23.5795 14.976 26.098 15.5775 26.098 16.296C26.098 17.0145 23.5803 17.616 20.2051 17.7688L20.2083 17.7696ZM20.2083 14.5793V12.4766H24.9175V9.27002H12.096V12.4766H16.8044V14.5785C12.9774 14.7582 10.0994 15.5328 10.0994 16.461C10.0994 17.3892 12.9774 18.163 16.8044 18.3435V25.0817H20.2075V18.341C24.0258 18.1614 26.899 17.3876 26.899 16.4602C26.899 15.5328 24.0282 14.759 20.2075 14.5785L20.2083 14.5793Z" fill="white"/>
</svg>
