<?xml version="1.0" encoding="utf-8"?>
<!-- Generator: Adobe Illustrator 26.5.0, SVG Export Plug-In . SVG Version: 6.00 Build 0)  -->
<svg version="1.1" id="Layer_1" xmlns="http://www.w3.org/2000/svg" xmlns:xlink="http://www.w3.org/1999/xlink" x="0px" y="0px"
	 width="36px" height="36px" viewBox="0 0 36 36" enable-background="new 0 0 36 36" xml:space="preserve">
<g>
	<path fill="#FE6600" d="M18.914,36c-0.61,0-1.219,0-1.829,0c-0.016-0.027-0.043-0.016-0.064-0.017
		c-1.054-0.058-2.097-0.201-3.124-0.447c-3.848-0.922-7.069-2.883-9.623-5.9c-2.71-3.202-4.114-6.921-4.259-11.115
		c0-0.335,0-0.671,0-1.006c0.01-0.394,0.035-0.788,0.071-1.181c0.086-0.941,0.244-1.87,0.48-2.785
		c0.736-2.857,2.086-5.388,4.063-7.576c2.359-2.612,5.24-4.39,8.635-5.329c1.42-0.393,2.868-0.594,4.34-0.629
		c0.27,0,0.539,0,0.809,0c0.585,0.015,1.169,0.056,1.751,0.125c1.081,0.128,2.145,0.344,3.181,0.678
		c4.585,1.477,8.068,4.316,10.428,8.512c1.312,2.332,2.023,4.85,2.197,7.521c0.007,0.108-0.005,0.219,0.031,0.324
		c0,0.556,0,1.112,0,1.667c-0.026,0.017-0.015,0.043-0.016,0.065c-0.018,0.364-0.048,0.727-0.087,1.089
		c-0.118,1.089-0.335,2.157-0.651,3.205c-1.716,5.705-6.189,10.222-11.873,11.993c-1.432,0.446-2.896,0.708-4.394,0.788
		C18.957,35.984,18.93,35.973,18.914,36z M25.548,24.773c0.083,0.056,0.166,0.111,0.25,0.167c0.085,0.055,0.17,0.11,0.255,0.166
		c0.184,0.123,0.369,0.246,0.553,0.369c1.239,0.821,2.479,1.641,3.717,2.464c0.051,0.034,0.068,0.016,0.098-0.021
		c2.178-2.761,3.334-5.898,3.46-9.411c0.047-1.304-0.074-2.595-0.352-3.87c-0.527-2.411-1.562-4.58-3.093-6.514
		c-0.048-0.061-0.077-0.054-0.133-0.014c-0.818,0.575-1.637,1.149-2.458,1.72c-0.062,0.043-0.065,0.066-0.017,0.125
		c1.623,1.99,2.567,4.264,2.826,6.818c0.102,1.006,0.076,2.01-0.064,3.012c-0.189,1.352-0.589,2.639-1.19,3.865
		c-0.041,0.083-0.068,0.082-0.139,0.035c-0.344-0.231-0.692-0.457-1.039-0.684c-0.175-0.126-0.355-0.243-0.539-0.355
		c-0.076-0.063-0.159-0.115-0.245-0.163c-0.086-0.068-0.179-0.126-0.273-0.181c-0.085-0.066-0.176-0.125-0.27-0.178
		c-0.083-0.069-0.177-0.122-0.269-0.178c-0.077-0.062-0.16-0.115-0.246-0.163c-0.085-0.068-0.177-0.124-0.27-0.179
		c-0.085-0.067-0.176-0.125-0.27-0.179c-0.085-0.067-0.175-0.126-0.27-0.178c-0.083-0.07-0.175-0.126-0.27-0.178
		c-0.081-0.073-0.179-0.12-0.27-0.178c-0.096-0.074-0.196-0.143-0.305-0.198c-0.045-0.053-0.109-0.082-0.166-0.12
		c-0.112-0.075-0.136-0.066-0.187,0.061c-0.116,0.288-0.252,0.567-0.411,0.834c-0.233,0.394-0.495,0.766-0.8,1.107
		c-0.096,0.107-0.198,0.207-0.296,0.311c-0.034,0.036-0.061,0.075-0.006,0.111c0.082,0.054,0.155,0.122,0.251,0.154
		c0.089,0.09,0.2,0.149,0.307,0.214c0.08,0.06,0.159,0.119,0.249,0.163c0.09,0.06,0.179,0.12,0.269,0.179
		c0.09,0.06,0.18,0.12,0.269,0.179c0.09,0.06,0.18,0.119,0.269,0.179c0.09,0.059,0.18,0.118,0.27,0.177
		c0.082,0.061,0.164,0.123,0.257,0.168c0.088,0.071,0.183,0.132,0.281,0.189C25.369,24.654,25.459,24.713,25.548,24.773z
		 M9.931,14.438c0.085,0.067,0.175,0.124,0.269,0.177c0.084,0.068,0.175,0.126,0.27,0.178c0.075,0.067,0.163,0.113,0.248,0.163
		c0.084,0.068,0.174,0.128,0.27,0.178c0.088,0.076,0.189,0.135,0.288,0.195c0.067,0.055,0.143,0.097,0.215,0.145
		c0.071,0.048,0.109,0.024,0.137-0.045c0.126-0.31,0.272-0.61,0.442-0.899c0.218-0.372,0.471-0.717,0.751-1.044
		c0.101-0.118,0.213-0.225,0.32-0.337c0.032-0.034,0.076-0.075,0.018-0.119c-0.085-0.065-0.168-0.134-0.268-0.176
		c-0.085-0.059-0.162-0.132-0.264-0.163c-0.088-0.084-0.19-0.148-0.293-0.21c-0.085-0.043-0.149-0.119-0.24-0.151
		c-0.09-0.058-0.167-0.136-0.27-0.177c-0.086-0.065-0.171-0.133-0.267-0.183c-0.094-0.062-0.187-0.125-0.281-0.187
		c-0.09-0.059-0.179-0.119-0.269-0.178c-0.095-0.048-0.166-0.13-0.264-0.174c-0.086-0.062-0.172-0.125-0.266-0.175
		c-0.091-0.06-0.171-0.137-0.276-0.175c-0.153-0.127-0.324-0.226-0.49-0.333c-0.101-0.062-0.189-0.142-0.295-0.196
		c-0.187-0.126-0.374-0.252-0.562-0.376C7.806,9.483,6.758,8.79,5.711,8.095C5.657,8.059,5.627,8.053,5.586,8.112
		C5.521,8.208,5.443,8.296,5.373,8.389c-2.01,2.663-3.09,5.661-3.234,8.994c-0.06,1.391,0.066,2.768,0.374,4.127
		c0.538,2.366,1.565,4.497,3.073,6.398c0.039,0.049,0.063,0.05,0.112,0.016c0.826-0.58,1.652-1.159,2.48-1.735
		c0.059-0.041,0.055-0.063,0.013-0.114c-1.617-1.982-2.562-4.246-2.826-6.79c-0.106-1.023-0.081-2.046,0.063-3.065
		c0.191-1.346,0.589-2.627,1.189-3.846c0.037-0.075,0.062-0.083,0.133-0.036c0.341,0.23,0.687,0.454,1.031,0.679
		c0.096,0.074,0.198,0.14,0.303,0.201c0.156,0.115,0.319,0.219,0.484,0.32c0.095,0.063,0.189,0.127,0.284,0.19
		c0.09,0.059,0.18,0.119,0.27,0.178c0.09,0.059,0.18,0.119,0.27,0.178c0.09,0.059,0.18,0.119,0.269,0.178
		C9.752,14.32,9.842,14.379,9.931,14.438z M18.003,33.893c0.477,0,0.951-0.022,1.424-0.064c0.226-0.02,0.452-0.044,0.677-0.074
		c1.196-0.16,2.36-0.449,3.49-0.875c1.562-0.589,2.996-1.404,4.302-2.443c0.046-0.036,0.068-0.057,0.025-0.118
		c-0.583-0.827-1.163-1.657-1.742-2.487c-0.036-0.051-0.056-0.049-0.101-0.012c-1.965,1.603-4.205,2.55-6.727,2.823
		c-1.045,0.113-2.087,0.092-3.128-0.053c-1.347-0.189-2.628-0.587-3.848-1.187c-0.073-0.036-0.085-0.059-0.037-0.132
		c0.695-1.047,1.388-2.096,2.081-3.144c0.779-1.178,1.558-2.355,2.334-3.535c0.041-0.063,0.087-0.096,0.161-0.106
		c0.166-0.023,0.33-0.052,0.495-0.08c1.792-0.302,3.584-0.606,5.376-0.905c0.084-0.014,0.1-0.039,0.087-0.118
		c-0.161-0.938-0.319-1.877-0.477-2.815c-0.197-1.165-0.392-2.33-0.59-3.495c-0.012-0.069,0.001-0.124,0.04-0.184
		c2.014-3.045,4.027-6.091,6.04-9.137c0.077-0.117,0.077-0.117-0.032-0.202c-2.675-2.091-5.705-3.231-9.097-3.402
		c-1.328-0.067-2.644,0.035-3.946,0.304c-2.479,0.511-4.706,1.56-6.69,3.129C8.06,5.628,8.061,5.654,8.102,5.713
		C8.678,6.53,9.251,7.35,9.822,8.171c0.049,0.07,0.074,0.062,0.133,0.014c1.989-1.62,4.26-2.563,6.813-2.82
		c1.087-0.11,2.171-0.073,3.251,0.099c1.27,0.202,2.48,0.591,3.634,1.16c0.066,0.032,0.069,0.055,0.03,0.114
		c-0.295,0.442-0.587,0.886-0.88,1.329c-1.182,1.788-2.364,3.576-3.544,5.365c-0.04,0.061-0.085,0.09-0.155,0.101
		c-0.18,0.027-0.359,0.059-0.539,0.09c-1.786,0.3-3.572,0.601-5.359,0.899c-0.062,0.01-0.076,0.032-0.066,0.093
		c0.054,0.303,0.103,0.606,0.154,0.909c0.152,0.903,0.304,1.807,0.457,2.71c0.153,0.906,0.305,1.813,0.459,2.719
		c0.011,0.063,0.004,0.113-0.032,0.168c-2.024,3.06-4.047,6.121-6.071,9.18c-0.043,0.065-0.043,0.095,0.021,0.145
		C11.026,32.721,14.322,33.859,18.003,33.893z"/>
	<path fill="#FEC29A" d="M0.016,18.521C0.011,18.52,0.005,18.52,0,18.52c0-0.335,0-0.669,0-1.004
		c0.005-0.001,0.01-0.001,0.016-0.001C0.016,17.85,0.016,18.186,0.016,18.521z"/>
	<path fill="#FED6BC" d="M18.412,0c0,0.005,0,0.01,0.001,0.015c-0.27,0-0.539,0-0.809,0C17.605,0.01,17.606,0.005,17.606,0
		C17.875,0,18.143,0,18.412,0z"/>
	<path fill="#FEFEFE" d="M18.003,33.893c-3.681-0.034-6.977-1.172-9.876-3.448c-0.064-0.05-0.064-0.081-0.021-0.145
		c2.025-3.059,4.047-6.12,6.071-9.18c0.036-0.054,0.043-0.105,0.032-0.168c-0.154-0.906-0.306-1.812-0.459-2.719
		c-0.152-0.903-0.304-1.807-0.457-2.71c-0.051-0.303-0.101-0.606-0.154-0.909c-0.011-0.06,0.003-0.082,0.066-0.093
		c1.786-0.299,3.573-0.599,5.359-0.899c0.18-0.03,0.359-0.063,0.539-0.09c0.07-0.01,0.115-0.04,0.155-0.101
		c1.18-1.789,2.362-3.577,3.544-5.365c0.293-0.443,0.585-0.887,0.88-1.329c0.039-0.059,0.036-0.082-0.03-0.114
		c-1.153-0.568-2.363-0.957-3.634-1.16c-1.08-0.172-2.164-0.209-3.251-0.099c-2.552,0.258-4.823,1.201-6.813,2.82
		C9.896,8.234,9.871,8.242,9.822,8.171C9.251,7.35,8.678,6.53,8.102,5.713C8.061,5.654,8.06,5.628,8.119,5.581
		c1.984-1.569,4.211-2.618,6.69-3.129c1.303-0.268,2.619-0.371,3.946-0.304c3.392,0.17,6.423,1.311,9.097,3.402
		c0.109,0.085,0.109,0.086,0.032,0.202c-2.013,3.046-4.025,6.092-6.04,9.137c-0.039,0.059-0.052,0.114-0.04,0.184
		c0.198,1.165,0.393,2.33,0.59,3.495c0.158,0.939,0.317,1.877,0.477,2.815c0.014,0.079-0.003,0.104-0.087,0.118
		c-1.792,0.299-3.584,0.603-5.376,0.905c-0.165,0.028-0.329,0.057-0.495,0.08c-0.074,0.01-0.12,0.043-0.161,0.106
		c-0.777,1.179-1.556,2.357-2.334,3.535c-0.693,1.048-1.385,2.097-2.081,3.144c-0.048,0.072-0.035,0.096,0.037,0.132
		c1.22,0.6,2.501,0.998,3.848,1.187c1.041,0.146,2.083,0.166,3.128,0.053c2.523-0.273,4.763-1.22,6.727-2.823
		c0.045-0.037,0.065-0.04,0.101,0.012c0.579,0.83,1.159,1.66,1.742,2.487c0.043,0.061,0.021,0.082-0.025,0.118
		c-1.307,1.039-2.74,1.854-4.302,2.443c-1.13,0.426-2.294,0.715-3.49,0.875c-0.225,0.03-0.451,0.054-0.677,0.074
		C18.954,33.871,18.479,33.893,18.003,33.893z M20.196,19.531c-0.051-0.303-0.101-0.6-0.152-0.897
		c-0.155-0.918-0.31-1.835-0.463-2.754c-0.009-0.057-0.025-0.065-0.079-0.055c-0.329,0.058-0.659,0.111-0.988,0.167
		c-0.877,0.148-1.753,0.297-2.63,0.442c-0.067,0.011-0.07,0.032-0.06,0.092c0.1,0.582,0.196,1.165,0.294,1.747
		c0.103,0.615,0.207,1.23,0.31,1.845c0.01,0.057,0.016,0.09,0.097,0.076c0.799-0.139,1.6-0.271,2.4-0.405
		c0.403-0.068,0.806-0.137,1.209-0.206C20.165,19.578,20.216,19.588,20.196,19.531z"/>
	<path fill="#FEFEFE" d="M7.782,13.016c-0.344-0.226-0.69-0.45-1.031-0.679c-0.07-0.047-0.096-0.039-0.133,0.036
		c-0.6,1.219-0.998,2.5-1.189,3.846c-0.144,1.02-0.169,2.042-0.063,3.065c0.264,2.545,1.208,4.808,2.826,6.79
		c0.042,0.051,0.046,0.073-0.013,0.114c-0.828,0.576-1.655,1.155-2.48,1.735c-0.049,0.035-0.073,0.033-0.112-0.016
		c-1.508-1.901-2.536-4.032-3.073-6.398c-0.309-1.359-0.434-2.736-0.374-4.127c0.144-3.332,1.224-6.331,3.234-8.994
		c0.07-0.093,0.148-0.181,0.213-0.277c0.041-0.059,0.07-0.054,0.125-0.018c1.047,0.695,2.095,1.388,3.143,2.082
		c0.188,0.125,0.375,0.251,0.562,0.376c-0.07,0.122-0.173,0.219-0.259,0.329c-0.463,0.589-0.88,1.207-1.222,1.875
		C7.89,12.845,7.855,12.942,7.782,13.016z"/>
	<path fill="#FEFEFE" d="M28.221,22.997c0.347,0.228,0.695,0.453,1.039,0.684c0.071,0.048,0.098,0.048,0.139-0.035
		c0.601-1.225,1.001-2.512,1.19-3.865c0.14-1.002,0.165-2.006,0.064-3.012c-0.259-2.555-1.203-4.828-2.826-6.818
		c-0.048-0.059-0.045-0.081,0.017-0.125c0.821-0.571,1.64-1.145,2.458-1.72c0.056-0.039,0.085-0.047,0.133,0.014
		c1.53,1.934,2.566,4.103,3.093,6.514c0.279,1.276,0.399,2.567,0.352,3.87c-0.126,3.513-1.282,6.651-3.46,9.411
		c-0.029,0.037-0.047,0.055-0.098,0.021c-1.238-0.823-2.478-1.643-3.717-2.464c-0.001-0.032,0.015-0.056,0.035-0.079
		c0.072-0.083,0.145-0.166,0.214-0.252C27.39,24.479,27.843,23.761,28.221,22.997z"/>
	<path fill="#FEF3EC" d="M28.221,22.997c-0.378,0.765-0.831,1.482-1.366,2.147c-0.069,0.086-0.142,0.169-0.214,0.252
		c-0.02,0.023-0.036,0.047-0.035,0.079c-0.184-0.123-0.369-0.246-0.553-0.369c0.027-0.01,0.041-0.032,0.059-0.053
		c0.225-0.255,0.433-0.524,0.632-0.799c0.348-0.483,0.645-0.996,0.914-1.527c0.014-0.027,0.024-0.055,0.023-0.085
		C27.866,22.754,28.046,22.871,28.221,22.997z"/>
	<path fill="#FEE0CC" d="M8.569,13.536c-0.165-0.101-0.328-0.205-0.484-0.32c0.006-0.02,0.008-0.042,0.017-0.06
		c0.133-0.254,0.261-0.509,0.408-0.755c0.351-0.587,0.743-1.145,1.201-1.653c0.166,0.107,0.337,0.206,0.49,0.333
		c-0.004,0.028-0.024,0.047-0.041,0.068c-0.143,0.175-0.29,0.348-0.427,0.528c-0.42,0.549-0.786,1.131-1.084,1.755
		C8.629,13.472,8.612,13.514,8.569,13.536z"/>
	<path fill="#FE7113" d="M23.108,23.146c-0.096-0.031-0.169-0.1-0.251-0.154c-0.055-0.036-0.028-0.075,0.006-0.111
		c0.098-0.104,0.201-0.204,0.296-0.311c0.305-0.342,0.567-0.714,0.8-1.107c0.158-0.268,0.295-0.546,0.411-0.834
		c0.051-0.127,0.076-0.136,0.187-0.061c0.057,0.038,0.12,0.067,0.166,0.12c-0.003,0.018-0.003,0.036-0.01,0.052
		c-0.22,0.527-0.49,1.026-0.823,1.491C23.655,22.559,23.391,22.86,23.108,23.146z"/>
	<path fill="#FE7113" d="M12.891,12.854c0.1,0.042,0.183,0.111,0.268,0.176c0.059,0.045,0.015,0.085-0.018,0.119
		c-0.107,0.112-0.219,0.219-0.32,0.337c-0.28,0.327-0.533,0.672-0.751,1.044c-0.169,0.289-0.316,0.588-0.442,0.899
		c-0.028,0.069-0.066,0.093-0.137,0.045c-0.072-0.048-0.148-0.09-0.215-0.145c0.022-0.046,0.046-0.09,0.066-0.137
		c0.166-0.394,0.366-0.77,0.599-1.128c0.261-0.401,0.554-0.775,0.896-1.111C12.865,12.925,12.892,12.898,12.891,12.854z"/>
	<path fill="#FE7C26" d="M23.108,23.146c0.283-0.286,0.547-0.587,0.782-0.915c0.333-0.465,0.603-0.964,0.823-1.491
		c0.007-0.016,0.007-0.035,0.01-0.052c0.109,0.055,0.209,0.124,0.305,0.198c-0.028,0.029-0.04,0.066-0.055,0.101
		c-0.121,0.282-0.258,0.557-0.412,0.823c-0.308,0.534-0.679,1.02-1.106,1.465c-0.024,0.025-0.042,0.05-0.041,0.086
		C23.308,23.295,23.197,23.236,23.108,23.146z"/>
	<path fill="#FE7C26" d="M12.891,12.854c0.001,0.043-0.026,0.071-0.054,0.099c-0.342,0.336-0.635,0.71-0.896,1.111
		c-0.233,0.358-0.433,0.734-0.599,1.128c-0.02,0.047-0.044,0.091-0.066,0.137c-0.099-0.06-0.2-0.119-0.288-0.195
		c0.017-0.028,0.036-0.055,0.049-0.085c0.176-0.419,0.393-0.817,0.64-1.199c0.195-0.301,0.414-0.584,0.652-0.851
		c0.095-0.106,0.176-0.227,0.297-0.308C12.729,12.722,12.805,12.796,12.891,12.854z"/>
	<path fill="#FEF3EC" d="M9.711,10.748c-0.459,0.509-0.85,1.066-1.201,1.653c-0.147,0.246-0.276,0.502-0.408,0.755
		c-0.009,0.018-0.012,0.04-0.017,0.06c-0.105-0.061-0.207-0.127-0.303-0.201c0.073-0.074,0.108-0.171,0.153-0.26
		c0.342-0.668,0.76-1.286,1.222-1.875c0.086-0.11,0.188-0.206,0.259-0.329C9.522,10.606,9.611,10.687,9.711,10.748z"/>
	<path fill="#FECCAB" d="M10.477,11.256c0.095,0.05,0.18,0.112,0.266,0.175c-0.097,0.14-0.218,0.26-0.324,0.391
		c-0.518,0.64-0.95,1.335-1.296,2.082c-0.09-0.059-0.18-0.119-0.27-0.178c0.12-0.266,0.259-0.523,0.403-0.777
		C9.601,12.34,10.021,11.785,10.477,11.256z"/>
	<path fill="#FE9A58" d="M24.202,23.883c-0.09-0.06-0.18-0.12-0.269-0.179c0.107-0.155,0.247-0.282,0.367-0.426
		c0.445-0.531,0.813-1.11,1.116-1.732c0.049-0.102,0.085-0.21,0.153-0.302c0.095,0.052,0.186,0.111,0.27,0.178
		c-0.02,0.033-0.044,0.064-0.06,0.099c-0.094,0.213-0.199,0.421-0.313,0.624c-0.203,0.362-0.431,0.708-0.68,1.04
		C24.604,23.427,24.393,23.647,24.202,23.883z"/>
	<path fill="#FEB88A" d="M24.998,24.406c-0.093-0.045-0.174-0.107-0.257-0.168c0.004-0.025,0.018-0.044,0.035-0.061
		c0.124-0.125,0.233-0.263,0.344-0.399c0.454-0.554,0.829-1.158,1.144-1.8c0.034-0.069,0.055-0.145,0.114-0.2
		c0.086,0.048,0.169,0.101,0.246,0.163c-0.024,0.061-0.045,0.124-0.073,0.182c-0.242,0.497-0.52,0.973-0.845,1.42
		C25.487,23.844,25.259,24.139,24.998,24.406z"/>
	<path fill="#FEE0CC" d="M27.682,22.641c0,0.031-0.01,0.059-0.023,0.085c-0.269,0.53-0.566,1.044-0.914,1.527
		c-0.199,0.276-0.407,0.544-0.632,0.799c-0.018,0.02-0.033,0.043-0.059,0.053c-0.085-0.055-0.17-0.11-0.255-0.166
		c0.154-0.189,0.313-0.374,0.461-0.568c0.429-0.563,0.805-1.159,1.116-1.796c0.017-0.035,0.03-0.072,0.062-0.097
		C27.523,22.527,27.606,22.578,27.682,22.641z"/>
	<path fill="#FE8637" d="M12.627,12.691c-0.121,0.081-0.203,0.202-0.297,0.308c-0.239,0.267-0.458,0.55-0.652,0.851
		c-0.247,0.382-0.463,0.78-0.64,1.199c-0.013,0.03-0.032,0.056-0.049,0.085c-0.096-0.05-0.186-0.11-0.27-0.178
		c0.014-0.022,0.032-0.043,0.043-0.068c0.097-0.221,0.2-0.439,0.316-0.651c0.3-0.545,0.655-1.05,1.07-1.513
		c0.067-0.075,0.162-0.134,0.187-0.243C12.437,12.544,12.539,12.608,12.627,12.691z"/>
	<path fill="#FE9A58" d="M10.47,14.793c-0.095-0.051-0.186-0.11-0.27-0.178c0.005-0.023,0.008-0.048,0.017-0.069
		c0.13-0.299,0.279-0.588,0.446-0.868c0.275-0.463,0.588-0.899,0.945-1.302c0.068-0.077,0.122-0.171,0.217-0.223
		c0.102,0.04,0.179,0.118,0.269,0.177c-0.143,0.114-0.254,0.259-0.37,0.397c-0.471,0.562-0.86,1.177-1.169,1.842
		C10.522,14.641,10.48,14.711,10.47,14.793z"/>
	<path fill="#FE9047" d="M25.568,21.243c-0.068,0.092-0.104,0.201-0.153,0.302c-0.302,0.622-0.671,1.201-1.116,1.732
		c-0.12,0.144-0.26,0.27-0.367,0.426c-0.09-0.06-0.179-0.12-0.269-0.179c0.151-0.173,0.307-0.341,0.451-0.518
		c0.43-0.527,0.785-1.101,1.071-1.718c0.035-0.076,0.058-0.157,0.112-0.223C25.393,21.117,25.485,21.173,25.568,21.243z"/>
	<path fill="#FEB88A" d="M9.662,14.261c-0.09-0.059-0.18-0.119-0.269-0.178c0.086-0.21,0.193-0.41,0.301-0.609
		c0.283-0.525,0.619-1.012,0.994-1.474c0.106-0.132,0.233-0.247,0.32-0.394c0.09,0.059,0.179,0.119,0.269,0.178
		c-0.005,0.028-0.025,0.047-0.043,0.067c-0.172,0.19-0.336,0.387-0.492,0.591c-0.29,0.377-0.549,0.774-0.774,1.193
		C9.857,13.838,9.746,14.043,9.662,14.261z"/>
	<path fill="#FEAE79" d="M26.379,21.778c-0.059,0.055-0.08,0.131-0.114,0.2c-0.315,0.642-0.69,1.246-1.144,1.8
		c-0.111,0.136-0.22,0.274-0.344,0.399c-0.017,0.017-0.031,0.036-0.035,0.061c-0.09-0.059-0.18-0.118-0.27-0.177
		c0.018-0.027,0.032-0.058,0.055-0.081c0.142-0.141,0.268-0.296,0.392-0.452c0.447-0.56,0.819-1.166,1.12-1.816
		c0.019-0.041,0.036-0.082,0.07-0.113C26.202,21.654,26.294,21.71,26.379,21.778z"/>
	<path fill="#FE9047" d="M10.47,14.793c0.01-0.082,0.052-0.152,0.085-0.224c0.309-0.665,0.698-1.28,1.169-1.842
		c0.116-0.138,0.227-0.283,0.37-0.397c0.091,0.033,0.155,0.109,0.24,0.151c-0.025,0.109-0.12,0.168-0.187,0.243
		c-0.415,0.464-0.77,0.968-1.07,1.513c-0.116,0.212-0.22,0.429-0.316,0.651c-0.011,0.024-0.028,0.045-0.043,0.068
		C10.632,14.906,10.544,14.86,10.47,14.793z"/>
	<path fill="#FEC29A" d="M11.007,11.605c-0.087,0.147-0.214,0.263-0.32,0.394c-0.374,0.463-0.711,0.95-0.994,1.474
		c-0.108,0.2-0.215,0.399-0.301,0.609c-0.09-0.059-0.18-0.119-0.27-0.178c0.346-0.747,0.778-1.441,1.296-2.082
		c0.107-0.132,0.228-0.251,0.324-0.391C10.841,11.474,10.912,11.557,11.007,11.605z"/>
	<path fill="#FEAE79" d="M9.662,14.261c0.084-0.218,0.195-0.423,0.305-0.628c0.225-0.419,0.484-0.816,0.774-1.193
		c0.156-0.203,0.32-0.401,0.492-0.591c0.018-0.02,0.038-0.038,0.043-0.067c0.094,0.062,0.187,0.125,0.281,0.187
		c-0.21,0.216-0.402,0.448-0.584,0.688c-0.291,0.383-0.551,0.788-0.776,1.213c-0.098,0.184-0.198,0.368-0.266,0.567
		C9.842,14.379,9.752,14.32,9.662,14.261z"/>
	<path fill="#FEA469" d="M26.108,21.599c-0.034,0.031-0.051,0.072-0.07,0.113c-0.301,0.65-0.673,1.256-1.12,1.816
		c-0.124,0.156-0.25,0.311-0.392,0.452c-0.023,0.022-0.037,0.054-0.055,0.081c-0.09-0.06-0.18-0.119-0.269-0.179
		c0.191-0.236,0.402-0.455,0.584-0.699c0.249-0.332,0.477-0.678,0.68-1.04c0.114-0.203,0.219-0.411,0.313-0.624
		c0.015-0.035,0.039-0.066,0.06-0.099C25.932,21.474,26.024,21.532,26.108,21.599z"/>
	<path fill="#FE8637" d="M25.298,21.064c-0.054,0.066-0.077,0.147-0.112,0.223c-0.286,0.617-0.641,1.191-1.071,1.718
		c-0.145,0.178-0.301,0.346-0.451,0.518c-0.09-0.044-0.17-0.104-0.249-0.163c-0.001-0.036,0.017-0.061,0.041-0.086
		c0.427-0.444,0.798-0.931,1.106-1.465c0.154-0.266,0.29-0.541,0.412-0.823c0.015-0.036,0.027-0.073,0.055-0.101
		C25.119,20.944,25.217,20.991,25.298,21.064z"/>
	<path fill="#FEC29A" d="M24.998,24.406c0.261-0.267,0.489-0.562,0.708-0.863c0.325-0.447,0.603-0.923,0.845-1.42
		c0.029-0.059,0.049-0.121,0.073-0.182c0.092,0.056,0.186,0.109,0.269,0.178c-0.081,0.199-0.184,0.387-0.286,0.576
		c-0.312,0.576-0.68,1.113-1.101,1.615c-0.078,0.093-0.17,0.175-0.227,0.285C25.181,24.538,25.087,24.476,24.998,24.406z"/>
	<path fill="#FECCAB" d="M25.279,24.594c0.058-0.109,0.149-0.192,0.227-0.285c0.421-0.502,0.789-1.039,1.101-1.615
		c0.102-0.189,0.206-0.377,0.286-0.576c0.094,0.053,0.185,0.112,0.27,0.178c-0.151,0.315-0.313,0.624-0.494,0.922
		c-0.293,0.483-0.618,0.942-0.989,1.368c-0.049,0.056-0.123,0.099-0.132,0.185C25.459,24.713,25.369,24.654,25.279,24.594z"/>
	<path fill="#FEA469" d="M9.931,14.438c0.067-0.199,0.168-0.383,0.266-0.567c0.225-0.425,0.485-0.83,0.776-1.213
		c0.182-0.24,0.374-0.471,0.584-0.688c0.097,0.05,0.181,0.118,0.267,0.183c-0.094,0.053-0.149,0.146-0.217,0.223
		c-0.357,0.403-0.67,0.839-0.945,1.302c-0.166,0.28-0.315,0.569-0.446,0.868c-0.009,0.021-0.011,0.046-0.017,0.069
		C10.107,14.562,10.016,14.505,9.931,14.438z"/>
	<path fill="#FED6BC" d="M25.548,24.773c0.009-0.086,0.083-0.13,0.132-0.185c0.371-0.426,0.697-0.885,0.989-1.368
		c0.181-0.299,0.343-0.608,0.494-0.922c0.095,0.055,0.187,0.113,0.273,0.181c-0.032,0.025-0.045,0.063-0.062,0.097
		c-0.311,0.637-0.687,1.233-1.116,1.796c-0.148,0.194-0.307,0.379-0.461,0.568C25.715,24.884,25.632,24.828,25.548,24.773z"/>
	<path fill="#FED6BC" d="M10.477,11.256c-0.456,0.529-0.876,1.084-1.221,1.693c-0.144,0.254-0.283,0.511-0.403,0.777
		c-0.095-0.063-0.189-0.127-0.284-0.19c0.043-0.023,0.061-0.065,0.08-0.105c0.299-0.624,0.665-1.206,1.084-1.755
		c0.137-0.18,0.284-0.352,0.427-0.528c0.017-0.021,0.037-0.039,0.041-0.068C10.306,11.119,10.386,11.197,10.477,11.256z"/>
	<path fill="#FE6600" d="M20.196,19.531c0.02,0.057-0.031,0.047-0.062,0.052c-0.403,0.069-0.806,0.138-1.209,0.206
		c-0.8,0.134-1.601,0.266-2.4,0.405c-0.081,0.014-0.087-0.019-0.097-0.076c-0.103-0.615-0.207-1.23-0.31-1.845
		c-0.098-0.583-0.194-1.165-0.294-1.747c-0.01-0.059-0.007-0.081,0.06-0.092c0.877-0.145,1.753-0.294,2.63-0.442
		c0.329-0.056,0.659-0.109,0.988-0.167c0.054-0.01,0.07-0.002,0.079,0.055c0.153,0.918,0.308,1.836,0.463,2.754
		C20.095,18.931,20.145,19.228,20.196,19.531z"/>
</g>
</svg>
